<svg xmlns="http://www.w3.org/2000/svg" xmlns:xlink="http://www.w3.org/1999/xlink" width="1920" zoomAndPan="magnify" viewBox="0 0 1440 961.499967" height="1282" preserveAspectRatio="xMidYMid meet" version="1.0"><defs><filter x="0%" y="0%" width="100%" height="100%" id="2a67badee9"><feColorMatrix values="0 0 0 0 1 0 0 0 0 1 0 0 0 0 1 0 0 0 1 0" color-interpolation-filters="sRGB"/></filter><clipPath id="e1e212338e"><path d="M 0.375 0 L 1439.625 0 L 1439.625 961 L 0.375 961 Z M 0.375 0 " clip-rule="nonzero"/></clipPath><clipPath id="ddf07f8fec"><path d="M 1128.121094 0 L 1253.304688 0 L 1253.304688 107.734375 L 1128.121094 107.734375 Z M 1128.121094 0 " clip-rule="nonzero"/></clipPath><clipPath id="5c53a8272c"><path d="M 1128.121094 128.882812 L 1253.304688 128.882812 L 1253.304688 236.828125 L 1128.121094 236.828125 Z M 1128.121094 128.882812 " clip-rule="nonzero"/></clipPath><clipPath id="787223a0a3"><path d="M 280.929688 674.457031 L 358 674.457031 L 358 740.421875 L 280.929688 740.421875 Z M 280.929688 674.457031 " clip-rule="nonzero"/></clipPath><clipPath id="505b22dd73"><path d="M 280.929688 752.335938 L 358 752.335938 L 358 818.300781 L 280.929688 818.300781 Z M 280.929688 752.335938 " clip-rule="nonzero"/></clipPath><mask id="1168e5478f"><g filter="url(#2a67badee9)"><rect x="-144" width="1728" fill="#000000" y="-96.149997" height="1153.79996" fill-opacity="0.68"/></g></mask><clipPath id="06491178c8"><path d="M 0.933594 0.132812 L 60.632812 0.132812 L 60.632812 59.832031 L 0.933594 59.832031 Z M 0.933594 0.132812 " clip-rule="nonzero"/></clipPath><clipPath id="b8cf09aa70"><path d="M 30.785156 0.132812 C 14.300781 0.132812 0.933594 13.496094 0.933594 29.984375 C 0.933594 46.46875 14.300781 59.832031 30.785156 59.832031 C 47.269531 59.832031 60.632812 46.46875 60.632812 29.984375 C 60.632812 13.496094 47.269531 0.132812 30.785156 0.132812 Z M 30.785156 0.132812 " clip-rule="nonzero"/></clipPath><clipPath id="618add0666"><rect x="0" width="61" y="0" height="60"/></clipPath><clipPath id="a9d0890b20"><path d="M 1078 572 L 1207 572 L 1207 658 L 1078 658 Z M 1078 572 " clip-rule="nonzero"/></clipPath><clipPath id="5754c19688"><path d="M 1186.957031 548.230469 L 1240.246094 813.542969 L 974.933594 866.828125 L 921.648438 601.515625 Z M 1186.957031 548.230469 " clip-rule="nonzero"/></clipPath><clipPath id="d797a18a8f"><path d="M 1186.957031 548.230469 L 1240.246094 813.542969 L 974.933594 866.828125 L 921.648438 601.515625 Z M 1186.957031 548.230469 " clip-rule="nonzero"/></clipPath><clipPath id="69e8408cde"><path d="M 1049 574 L 1215 574 L 1215 686 L 1049 686 Z M 1049 574 " clip-rule="nonzero"/></clipPath><clipPath id="8c7c96c2b0"><path d="M 1186.957031 548.230469 L 1240.246094 813.542969 L 974.933594 866.828125 L 921.648438 601.515625 Z M 1186.957031 548.230469 " clip-rule="nonzero"/></clipPath><clipPath id="a4fad8550f"><path d="M 1186.957031 548.230469 L 1240.246094 813.542969 L 974.933594 866.828125 L 921.648438 601.515625 Z M 1186.957031 548.230469 " clip-rule="nonzero"/></clipPath><clipPath id="46466e2724"><path d="M 1027 581 L 1217 581 L 1217 710 L 1027 710 Z M 1027 581 " clip-rule="nonzero"/></clipPath><clipPath id="7e6018b747"><path d="M 1186.957031 548.230469 L 1240.246094 813.542969 L 974.933594 866.828125 L 921.648438 601.515625 Z M 1186.957031 548.230469 " clip-rule="nonzero"/></clipPath><clipPath id="06713b6982"><path d="M 1186.957031 548.230469 L 1240.246094 813.542969 L 974.933594 866.828125 L 921.648438 601.515625 Z M 1186.957031 548.230469 " clip-rule="nonzero"/></clipPath><clipPath id="436ec11af2"><path d="M 1008 590 L 1215 590 L 1215 731 L 1008 731 Z M 1008 590 " clip-rule="nonzero"/></clipPath><clipPath id="a359152af6"><path d="M 1186.957031 548.230469 L 1240.246094 813.542969 L 974.933594 866.828125 L 921.648438 601.515625 Z M 1186.957031 548.230469 " clip-rule="nonzero"/></clipPath><clipPath id="8188f5e40e"><path d="M 1186.957031 548.230469 L 1240.246094 813.542969 L 974.933594 866.828125 L 921.648438 601.515625 Z M 1186.957031 548.230469 " clip-rule="nonzero"/></clipPath><clipPath id="184b677a66"><path d="M 992 602 L 1211 602 L 1211 751 L 992 751 Z M 992 602 " clip-rule="nonzero"/></clipPath><clipPath id="90e6357b94"><path d="M 1186.957031 548.230469 L 1240.246094 813.542969 L 974.933594 866.828125 L 921.648438 601.515625 Z M 1186.957031 548.230469 " clip-rule="nonzero"/></clipPath><clipPath id="762df04b53"><path d="M 1186.957031 548.230469 L 1240.246094 813.542969 L 974.933594 866.828125 L 921.648438 601.515625 Z M 1186.957031 548.230469 " clip-rule="nonzero"/></clipPath><clipPath id="0312a4ca0b"><path d="M 978 615 L 1204 615 L 1204 768 L 978 768 Z M 978 615 " clip-rule="nonzero"/></clipPath><clipPath id="77a96dab07"><path d="M 1186.957031 548.230469 L 1240.246094 813.542969 L 974.933594 866.828125 L 921.648438 601.515625 Z M 1186.957031 548.230469 " clip-rule="nonzero"/></clipPath><clipPath id="77ee09531e"><path d="M 1186.957031 548.230469 L 1240.246094 813.542969 L 974.933594 866.828125 L 921.648438 601.515625 Z M 1186.957031 548.230469 " clip-rule="nonzero"/></clipPath><clipPath id="2ddcda7842"><path d="M 967 630 L 1195 630 L 1195 785 L 967 785 Z M 967 630 " clip-rule="nonzero"/></clipPath><clipPath id="78d830fadd"><path d="M 1186.957031 548.230469 L 1240.246094 813.542969 L 974.933594 866.828125 L 921.648438 601.515625 Z M 1186.957031 548.230469 " clip-rule="nonzero"/></clipPath><clipPath id="94517e85e6"><path d="M 1186.957031 548.230469 L 1240.246094 813.542969 L 974.933594 866.828125 L 921.648438 601.515625 Z M 1186.957031 548.230469 " clip-rule="nonzero"/></clipPath><clipPath id="30c6e83180"><path d="M 958 646 L 1184 646 L 1184 799 L 958 799 Z M 958 646 " clip-rule="nonzero"/></clipPath><clipPath id="ce9b198fc8"><path d="M 1186.957031 548.230469 L 1240.246094 813.542969 L 974.933594 866.828125 L 921.648438 601.515625 Z M 1186.957031 548.230469 " clip-rule="nonzero"/></clipPath><clipPath id="f1fdc99d5f"><path d="M 1186.957031 548.230469 L 1240.246094 813.542969 L 974.933594 866.828125 L 921.648438 601.515625 Z M 1186.957031 548.230469 " clip-rule="nonzero"/></clipPath><clipPath id="01fbe172c8"><path d="M 951 664 L 1170 664 L 1170 813 L 951 813 Z M 951 664 " clip-rule="nonzero"/></clipPath><clipPath id="29b30fae43"><path d="M 1186.957031 548.230469 L 1240.246094 813.542969 L 974.933594 866.828125 L 921.648438 601.515625 Z M 1186.957031 548.230469 " clip-rule="nonzero"/></clipPath><clipPath id="4a83d22271"><path d="M 1186.957031 548.230469 L 1240.246094 813.542969 L 974.933594 866.828125 L 921.648438 601.515625 Z M 1186.957031 548.230469 " clip-rule="nonzero"/></clipPath><clipPath id="4a2269b71f"><path d="M 947 684 L 1154 684 L 1154 824 L 947 824 Z M 947 684 " clip-rule="nonzero"/></clipPath><clipPath id="5011abbb40"><path d="M 1186.957031 548.230469 L 1240.246094 813.542969 L 974.933594 866.828125 L 921.648438 601.515625 Z M 1186.957031 548.230469 " clip-rule="nonzero"/></clipPath><clipPath id="161de88b0a"><path d="M 1186.957031 548.230469 L 1240.246094 813.542969 L 974.933594 866.828125 L 921.648438 601.515625 Z M 1186.957031 548.230469 " clip-rule="nonzero"/></clipPath><clipPath id="4016c2ef4e"><path d="M 945 705 L 1135 705 L 1135 834 L 945 834 Z M 945 705 " clip-rule="nonzero"/></clipPath><clipPath id="ba408779bd"><path d="M 1186.957031 548.230469 L 1240.246094 813.542969 L 974.933594 866.828125 L 921.648438 601.515625 Z M 1186.957031 548.230469 " clip-rule="nonzero"/></clipPath><clipPath id="403bbcd937"><path d="M 1186.957031 548.230469 L 1240.246094 813.542969 L 974.933594 866.828125 L 921.648438 601.515625 Z M 1186.957031 548.230469 " clip-rule="nonzero"/></clipPath><clipPath id="ae010c0c98"><path d="M 947 729 L 1113 729 L 1113 841 L 947 841 Z M 947 729 " clip-rule="nonzero"/></clipPath><clipPath id="bf3b1e05ee"><path d="M 1186.957031 548.230469 L 1240.246094 813.542969 L 974.933594 866.828125 L 921.648438 601.515625 Z M 1186.957031 548.230469 " clip-rule="nonzero"/></clipPath><clipPath id="984c1e9a8d"><path d="M 1186.957031 548.230469 L 1240.246094 813.542969 L 974.933594 866.828125 L 921.648438 601.515625 Z M 1186.957031 548.230469 " clip-rule="nonzero"/></clipPath><clipPath id="af4c56a7a4"><path d="M 955 757 L 1084 757 L 1084 843 L 955 843 Z M 955 757 " clip-rule="nonzero"/></clipPath><clipPath id="ff395875aa"><path d="M 1186.957031 548.230469 L 1240.246094 813.542969 L 974.933594 866.828125 L 921.648438 601.515625 Z M 1186.957031 548.230469 " clip-rule="nonzero"/></clipPath><clipPath id="50e4384d06"><path d="M 1186.957031 548.230469 L 1240.246094 813.542969 L 974.933594 866.828125 L 921.648438 601.515625 Z M 1186.957031 548.230469 " clip-rule="nonzero"/></clipPath><clipPath id="402bfa8fb4"><path d="M 1122 578 L 1185 578 L 1185 620 L 1122 620 Z M 1122 578 " clip-rule="nonzero"/></clipPath><clipPath id="45ba39a59a"><path d="M 1186.957031 548.230469 L 1240.246094 813.542969 L 974.933594 866.828125 L 921.648438 601.515625 Z M 1186.957031 548.230469 " clip-rule="nonzero"/></clipPath><clipPath id="e3cfa8fc9c"><path d="M 1186.957031 548.230469 L 1240.246094 813.542969 L 974.933594 866.828125 L 921.648438 601.515625 Z M 1186.957031 548.230469 " clip-rule="nonzero"/></clipPath><clipPath id="aae04030a0"><path d="M 978 794 L 1041 794 L 1041 837 L 978 837 Z M 978 794 " clip-rule="nonzero"/></clipPath><clipPath id="4f9a9f990d"><path d="M 1186.957031 548.230469 L 1240.246094 813.542969 L 974.933594 866.828125 L 921.648438 601.515625 Z M 1186.957031 548.230469 " clip-rule="nonzero"/></clipPath><clipPath id="7bccd8a4ca"><path d="M 1186.957031 548.230469 L 1240.246094 813.542969 L 974.933594 866.828125 L 921.648438 601.515625 Z M 1186.957031 548.230469 " clip-rule="nonzero"/></clipPath></defs><g clip-path="url(#e1e212338e)"><path fill="#ffffff" d="M 0.375 0 L 1439.625 0 L 1439.625 961 L 0.375 961 Z M 0.375 0 " fill-opacity="1" fill-rule="nonzero"/><path fill="#ffffff" d="M 0.375 0 L 1439.625 0 L 1439.625 961 L 0.375 961 Z M 0.375 0 " fill-opacity="1" fill-rule="nonzero"/></g><g clip-path="url(#ddf07f8fec)"><path fill="#000000" d="M 1167.023438 37.171875 C 1167.023438 34.84375 1168.921875 32.9375 1171.238281 32.9375 C 1173.558594 32.9375 1175.453125 34.84375 1175.453125 37.171875 C 1175.453125 39.5 1173.558594 41.402344 1171.238281 41.402344 C 1168.921875 41.402344 1167.023438 39.539062 1167.023438 37.171875 Z M 1167.023438 70.351562 C 1167.023438 68.023438 1168.921875 66.121094 1171.238281 66.121094 C 1173.558594 66.121094 1175.453125 68.023438 1175.453125 70.351562 C 1175.453125 72.679688 1173.558594 74.585938 1171.238281 74.585938 C 1168.921875 74.585938 1167.023438 72.679688 1167.023438 70.351562 Z M 1167.023438 103.492188 C 1167.023438 101.164062 1168.921875 99.257812 1171.238281 99.257812 C 1173.558594 99.257812 1175.453125 101.164062 1175.453125 103.492188 C 1175.453125 105.820312 1173.558594 107.722656 1171.238281 107.722656 C 1168.921875 107.722656 1167.023438 105.820312 1167.023438 103.492188 Z M 1167.023438 4.03125 C 1167.023438 1.703125 1168.921875 -0.199219 1171.238281 -0.199219 C 1173.558594 -0.199219 1175.453125 1.703125 1175.453125 4.03125 C 1175.453125 6.359375 1173.558594 8.265625 1171.238281 8.265625 C 1168.921875 8.265625 1167.023438 6.359375 1167.023438 4.03125 Z M 1205.972656 37.171875 C 1205.972656 34.84375 1207.867188 32.9375 1210.1875 32.9375 C 1212.503906 32.9375 1214.402344 34.84375 1214.402344 37.171875 C 1214.402344 39.5 1212.503906 41.402344 1210.1875 41.402344 C 1207.867188 41.402344 1205.972656 39.539062 1205.972656 37.171875 Z M 1205.972656 70.351562 C 1205.972656 68.023438 1207.867188 66.121094 1210.1875 66.121094 C 1212.503906 66.121094 1214.402344 68.023438 1214.402344 70.351562 C 1214.402344 72.679688 1212.503906 74.585938 1210.1875 74.585938 C 1207.867188 74.585938 1205.972656 72.679688 1205.972656 70.351562 Z M 1205.972656 103.492188 C 1205.972656 101.164062 1207.867188 99.257812 1210.1875 99.257812 C 1212.503906 99.257812 1214.402344 101.164062 1214.402344 103.492188 C 1214.402344 105.820312 1212.503906 107.722656 1210.1875 107.722656 C 1207.867188 107.722656 1205.972656 105.820312 1205.972656 103.492188 Z M 1205.972656 4.03125 C 1205.972656 1.703125 1207.867188 -0.199219 1210.1875 -0.199219 C 1212.503906 -0.199219 1214.402344 1.703125 1214.402344 4.03125 C 1214.402344 6.359375 1212.503906 8.265625 1210.1875 8.265625 C 1207.867188 8.265625 1205.972656 6.359375 1205.972656 4.03125 Z M 1128.121094 37.171875 C 1128.121094 34.84375 1130.015625 32.9375 1132.335938 32.9375 C 1134.652344 32.9375 1136.550781 34.84375 1136.550781 37.171875 C 1136.550781 39.5 1134.652344 41.402344 1132.335938 41.402344 C 1130.015625 41.402344 1128.121094 39.539062 1128.121094 37.171875 Z M 1128.121094 70.351562 C 1128.121094 68.023438 1130.015625 66.121094 1132.335938 66.121094 C 1134.652344 66.121094 1136.550781 68.023438 1136.550781 70.351562 C 1136.550781 72.679688 1134.652344 74.585938 1132.335938 74.585938 C 1130.015625 74.585938 1128.121094 72.679688 1128.121094 70.351562 Z M 1128.121094 103.492188 C 1128.121094 101.164062 1130.015625 99.257812 1132.335938 99.257812 C 1134.652344 99.257812 1136.550781 101.164062 1136.550781 103.492188 C 1136.550781 105.820312 1134.652344 107.722656 1132.335938 107.722656 C 1130.015625 107.722656 1128.121094 105.820312 1128.121094 103.492188 Z M 1128.121094 4.03125 C 1128.121094 1.703125 1130.015625 -0.199219 1132.335938 -0.199219 C 1134.652344 -0.199219 1136.550781 1.703125 1136.550781 4.03125 C 1136.550781 6.359375 1134.652344 8.265625 1132.335938 8.265625 C 1130.015625 8.265625 1128.121094 6.359375 1128.121094 4.03125 Z M 1244.875 37.171875 C 1244.875 34.84375 1246.773438 32.9375 1249.089844 32.9375 C 1251.410156 32.9375 1253.304688 34.84375 1253.304688 37.171875 C 1253.304688 39.5 1251.410156 41.402344 1249.089844 41.402344 C 1246.773438 41.402344 1244.875 39.539062 1244.875 37.171875 Z M 1244.875 70.351562 C 1244.875 68.023438 1246.773438 66.121094 1249.089844 66.121094 C 1251.410156 66.121094 1253.304688 68.023438 1253.304688 70.351562 C 1253.304688 72.679688 1251.410156 74.585938 1249.089844 74.585938 C 1246.773438 74.585938 1244.875 72.679688 1244.875 70.351562 Z M 1244.875 103.492188 C 1244.875 101.164062 1246.773438 99.257812 1249.089844 99.257812 C 1251.410156 99.257812 1253.304688 101.164062 1253.304688 103.492188 C 1253.304688 105.820312 1251.410156 107.722656 1249.089844 107.722656 C 1246.773438 107.722656 1244.875 105.820312 1244.875 103.492188 Z M 1244.875 4.03125 C 1244.875 1.703125 1246.773438 -0.199219 1249.089844 -0.199219 C 1251.410156 -0.199219 1253.304688 1.703125 1253.304688 4.03125 C 1253.304688 6.359375 1251.410156 8.265625 1249.089844 8.265625 C 1246.773438 8.265625 1244.875 6.359375 1244.875 4.03125 Z M 1244.875 4.03125 " fill-opacity="1" fill-rule="nonzero"/></g><g clip-path="url(#5c53a8272c)"><path fill="#000000" d="M 1167.023438 166.265625 C 1167.023438 163.9375 1168.921875 162.035156 1171.238281 162.035156 C 1173.558594 162.035156 1175.453125 163.9375 1175.453125 166.265625 C 1175.453125 168.59375 1173.558594 170.5 1171.238281 170.5 C 1168.921875 170.5 1167.023438 168.636719 1167.023438 166.265625 Z M 1167.023438 199.445312 C 1167.023438 197.121094 1168.921875 195.214844 1171.238281 195.214844 C 1173.558594 195.214844 1175.453125 197.121094 1175.453125 199.445312 C 1175.453125 201.773438 1173.558594 203.679688 1171.238281 203.679688 C 1168.921875 203.679688 1167.023438 201.773438 1167.023438 199.445312 Z M 1167.023438 232.585938 C 1167.023438 230.257812 1168.921875 228.355469 1171.238281 228.355469 C 1173.558594 228.355469 1175.453125 230.257812 1175.453125 232.585938 C 1175.453125 234.914062 1173.558594 236.820312 1171.238281 236.820312 C 1168.921875 236.820312 1167.023438 234.914062 1167.023438 232.585938 Z M 1167.023438 133.125 C 1167.023438 130.800781 1168.921875 128.894531 1171.238281 128.894531 C 1173.558594 128.894531 1175.453125 130.800781 1175.453125 133.125 C 1175.453125 135.453125 1173.558594 137.359375 1171.238281 137.359375 C 1168.921875 137.359375 1167.023438 135.453125 1167.023438 133.125 Z M 1205.972656 166.265625 C 1205.972656 163.9375 1207.867188 162.035156 1210.1875 162.035156 C 1212.503906 162.035156 1214.402344 163.9375 1214.402344 166.265625 C 1214.402344 168.59375 1212.503906 170.5 1210.1875 170.5 C 1207.867188 170.5 1205.972656 168.636719 1205.972656 166.265625 Z M 1205.972656 199.445312 C 1205.972656 197.121094 1207.867188 195.214844 1210.1875 195.214844 C 1212.503906 195.214844 1214.402344 197.121094 1214.402344 199.445312 C 1214.402344 201.773438 1212.503906 203.679688 1210.1875 203.679688 C 1207.867188 203.679688 1205.972656 201.773438 1205.972656 199.445312 Z M 1205.972656 232.585938 C 1205.972656 230.257812 1207.867188 228.355469 1210.1875 228.355469 C 1212.503906 228.355469 1214.402344 230.257812 1214.402344 232.585938 C 1214.402344 234.914062 1212.503906 236.820312 1210.1875 236.820312 C 1207.867188 236.820312 1205.972656 234.914062 1205.972656 232.585938 Z M 1205.972656 133.125 C 1205.972656 130.800781 1207.867188 128.894531 1210.1875 128.894531 C 1212.503906 128.894531 1214.402344 130.800781 1214.402344 133.125 C 1214.402344 135.453125 1212.503906 137.359375 1210.1875 137.359375 C 1207.867188 137.359375 1205.972656 135.453125 1205.972656 133.125 Z M 1128.121094 166.265625 C 1128.121094 163.9375 1130.015625 162.035156 1132.335938 162.035156 C 1134.652344 162.035156 1136.550781 163.9375 1136.550781 166.265625 C 1136.550781 168.59375 1134.652344 170.5 1132.335938 170.5 C 1130.015625 170.5 1128.121094 168.636719 1128.121094 166.265625 Z M 1128.121094 199.445312 C 1128.121094 197.121094 1130.015625 195.214844 1132.335938 195.214844 C 1134.652344 195.214844 1136.550781 197.121094 1136.550781 199.445312 C 1136.550781 201.773438 1134.652344 203.679688 1132.335938 203.679688 C 1130.015625 203.679688 1128.121094 201.773438 1128.121094 199.445312 Z M 1128.121094 232.585938 C 1128.121094 230.257812 1130.015625 228.355469 1132.335938 228.355469 C 1134.652344 228.355469 1136.550781 230.257812 1136.550781 232.585938 C 1136.550781 234.914062 1134.652344 236.820312 1132.335938 236.820312 C 1130.015625 236.820312 1128.121094 234.914062 1128.121094 232.585938 Z M 1128.121094 133.125 C 1128.121094 130.800781 1130.015625 128.894531 1132.335938 128.894531 C 1134.652344 128.894531 1136.550781 130.800781 1136.550781 133.125 C 1136.550781 135.453125 1134.652344 137.359375 1132.335938 137.359375 C 1130.015625 137.359375 1128.121094 135.453125 1128.121094 133.125 Z M 1244.875 166.265625 C 1244.875 163.9375 1246.773438 162.035156 1249.089844 162.035156 C 1251.410156 162.035156 1253.304688 163.9375 1253.304688 166.265625 C 1253.304688 168.59375 1251.410156 170.5 1249.089844 170.5 C 1246.773438 170.5 1244.875 168.636719 1244.875 166.265625 Z M 1244.875 199.445312 C 1244.875 197.121094 1246.773438 195.214844 1249.089844 195.214844 C 1251.410156 195.214844 1253.304688 197.121094 1253.304688 199.445312 C 1253.304688 201.773438 1251.410156 203.679688 1249.089844 203.679688 C 1246.773438 203.679688 1244.875 201.773438 1244.875 199.445312 Z M 1244.875 232.585938 C 1244.875 230.257812 1246.773438 228.355469 1249.089844 228.355469 C 1251.410156 228.355469 1253.304688 230.257812 1253.304688 232.585938 C 1253.304688 234.914062 1251.410156 236.820312 1249.089844 236.820312 C 1246.773438 236.820312 1244.875 234.914062 1244.875 232.585938 Z M 1244.875 133.125 C 1244.875 130.800781 1246.773438 128.894531 1249.089844 128.894531 C 1251.410156 128.894531 1253.304688 130.800781 1253.304688 133.125 C 1253.304688 135.453125 1251.410156 137.359375 1249.089844 137.359375 C 1246.773438 137.359375 1244.875 135.453125 1244.875 133.125 Z M 1244.875 133.125 " fill-opacity="1" fill-rule="nonzero"/></g><g clip-path="url(#787223a0a3)"><path fill="#ffbc00" d="M 304.851562 697.214844 C 304.851562 695.792969 306.019531 694.625 307.445312 694.625 C 308.871094 694.625 310.035156 695.792969 310.035156 697.214844 C 310.035156 698.640625 308.871094 699.808594 307.445312 699.808594 C 306.019531 699.808594 304.851562 698.667969 304.851562 697.214844 Z M 304.851562 717.535156 C 304.851562 716.109375 306.019531 714.945312 307.445312 714.945312 C 308.871094 714.945312 310.035156 716.109375 310.035156 717.535156 C 310.035156 718.960938 308.871094 720.128906 307.445312 720.128906 C 306.019531 720.128906 304.851562 718.960938 304.851562 717.535156 Z M 304.851562 737.828125 C 304.851562 736.40625 306.019531 735.238281 307.445312 735.238281 C 308.871094 735.238281 310.035156 736.40625 310.035156 737.828125 C 310.035156 739.253906 308.871094 740.421875 307.445312 740.421875 C 306.019531 740.421875 304.851562 739.253906 304.851562 737.828125 Z M 304.851562 676.921875 C 304.851562 675.496094 306.019531 674.332031 307.445312 674.332031 C 308.871094 674.332031 310.035156 675.496094 310.035156 676.921875 C 310.035156 678.347656 308.871094 679.515625 307.445312 679.515625 C 306.019531 679.515625 304.851562 678.347656 304.851562 676.921875 Z M 328.800781 697.214844 C 328.800781 695.792969 329.96875 694.625 331.394531 694.625 C 332.816406 694.625 333.984375 695.792969 333.984375 697.214844 C 333.984375 698.640625 332.816406 699.808594 331.394531 699.808594 C 329.96875 699.808594 328.800781 698.667969 328.800781 697.214844 Z M 328.800781 717.535156 C 328.800781 716.109375 329.96875 714.945312 331.394531 714.945312 C 332.816406 714.945312 333.984375 716.109375 333.984375 717.535156 C 333.984375 718.960938 332.816406 720.128906 331.394531 720.128906 C 329.96875 720.128906 328.800781 718.960938 328.800781 717.535156 Z M 328.800781 737.828125 C 328.800781 736.40625 329.96875 735.238281 331.394531 735.238281 C 332.816406 735.238281 333.984375 736.40625 333.984375 737.828125 C 333.984375 739.253906 332.816406 740.421875 331.394531 740.421875 C 329.96875 740.421875 328.800781 739.253906 328.800781 737.828125 Z M 328.800781 676.921875 C 328.800781 675.496094 329.96875 674.332031 331.394531 674.332031 C 332.816406 674.332031 333.984375 675.496094 333.984375 676.921875 C 333.984375 678.347656 332.816406 679.515625 331.394531 679.515625 C 329.96875 679.515625 328.800781 678.347656 328.800781 676.921875 Z M 280.929688 697.214844 C 280.929688 695.792969 282.097656 694.625 283.523438 694.625 C 284.949219 694.625 286.113281 695.792969 286.113281 697.214844 C 286.113281 698.640625 284.949219 699.808594 283.523438 699.808594 C 282.097656 699.808594 280.929688 698.667969 280.929688 697.214844 Z M 280.929688 717.535156 C 280.929688 716.109375 282.097656 714.945312 283.523438 714.945312 C 284.949219 714.945312 286.113281 716.109375 286.113281 717.535156 C 286.113281 718.960938 284.949219 720.128906 283.523438 720.128906 C 282.097656 720.128906 280.929688 718.960938 280.929688 717.535156 Z M 280.929688 737.828125 C 280.929688 736.40625 282.097656 735.238281 283.523438 735.238281 C 284.949219 735.238281 286.113281 736.40625 286.113281 737.828125 C 286.113281 739.253906 284.949219 740.421875 283.523438 740.421875 C 282.097656 740.421875 280.929688 739.253906 280.929688 737.828125 Z M 280.929688 676.921875 C 280.929688 675.496094 282.097656 674.332031 283.523438 674.332031 C 284.949219 674.332031 286.113281 675.496094 286.113281 676.921875 C 286.113281 678.347656 284.949219 679.515625 283.523438 679.515625 C 282.097656 679.515625 280.929688 678.347656 280.929688 676.921875 Z M 352.722656 697.214844 C 352.722656 695.792969 353.890625 694.625 355.316406 694.625 C 356.742188 694.625 357.90625 695.792969 357.90625 697.214844 C 357.90625 698.640625 356.742188 699.808594 355.316406 699.808594 C 353.890625 699.808594 352.722656 698.667969 352.722656 697.214844 Z M 352.722656 717.535156 C 352.722656 716.109375 353.890625 714.945312 355.316406 714.945312 C 356.742188 714.945312 357.90625 716.109375 357.90625 717.535156 C 357.90625 718.960938 356.742188 720.128906 355.316406 720.128906 C 353.890625 720.128906 352.722656 718.960938 352.722656 717.535156 Z M 352.722656 737.828125 C 352.722656 736.40625 353.890625 735.238281 355.316406 735.238281 C 356.742188 735.238281 357.90625 736.40625 357.90625 737.828125 C 357.90625 739.253906 356.742188 740.421875 355.316406 740.421875 C 353.890625 740.421875 352.722656 739.253906 352.722656 737.828125 Z M 352.722656 676.921875 C 352.722656 675.496094 353.890625 674.332031 355.316406 674.332031 C 356.742188 674.332031 357.90625 675.496094 357.90625 676.921875 C 357.90625 678.347656 356.742188 679.515625 355.316406 679.515625 C 353.890625 679.515625 352.722656 678.347656 352.722656 676.921875 Z M 352.722656 676.921875 " fill-opacity="1" fill-rule="nonzero"/></g><g clip-path="url(#505b22dd73)"><path fill="#ffbc00" d="M 304.851562 775.09375 C 304.851562 773.667969 306.019531 772.503906 307.445312 772.503906 C 308.871094 772.503906 310.035156 773.667969 310.035156 775.09375 C 310.035156 776.519531 308.871094 777.6875 307.445312 777.6875 C 306.019531 777.6875 304.851562 776.546875 304.851562 775.09375 Z M 304.851562 795.414062 C 304.851562 793.988281 306.019531 792.824219 307.445312 792.824219 C 308.871094 792.824219 310.035156 793.988281 310.035156 795.414062 C 310.035156 796.839844 308.871094 798.007812 307.445312 798.007812 C 306.019531 798.007812 304.851562 796.839844 304.851562 795.414062 Z M 304.851562 815.707031 C 304.851562 814.28125 306.019531 813.117188 307.445312 813.117188 C 308.871094 813.117188 310.035156 814.28125 310.035156 815.707031 C 310.035156 817.132812 308.871094 818.300781 307.445312 818.300781 C 306.019531 818.300781 304.851562 817.132812 304.851562 815.707031 Z M 304.851562 754.800781 C 304.851562 753.375 306.019531 752.210938 307.445312 752.210938 C 308.871094 752.210938 310.035156 753.375 310.035156 754.800781 C 310.035156 756.226562 308.871094 757.394531 307.445312 757.394531 C 306.019531 757.394531 304.851562 756.226562 304.851562 754.800781 Z M 328.800781 775.09375 C 328.800781 773.667969 329.96875 772.503906 331.394531 772.503906 C 332.816406 772.503906 333.984375 773.667969 333.984375 775.09375 C 333.984375 776.519531 332.816406 777.6875 331.394531 777.6875 C 329.96875 777.6875 328.800781 776.546875 328.800781 775.09375 Z M 328.800781 795.414062 C 328.800781 793.988281 329.96875 792.824219 331.394531 792.824219 C 332.816406 792.824219 333.984375 793.988281 333.984375 795.414062 C 333.984375 796.839844 332.816406 798.007812 331.394531 798.007812 C 329.96875 798.007812 328.800781 796.839844 328.800781 795.414062 Z M 328.800781 815.707031 C 328.800781 814.28125 329.96875 813.117188 331.394531 813.117188 C 332.816406 813.117188 333.984375 814.28125 333.984375 815.707031 C 333.984375 817.132812 332.816406 818.300781 331.394531 818.300781 C 329.96875 818.300781 328.800781 817.132812 328.800781 815.707031 Z M 328.800781 754.800781 C 328.800781 753.375 329.96875 752.210938 331.394531 752.210938 C 332.816406 752.210938 333.984375 753.375 333.984375 754.800781 C 333.984375 756.226562 332.816406 757.394531 331.394531 757.394531 C 329.96875 757.394531 328.800781 756.226562 328.800781 754.800781 Z M 280.929688 775.09375 C 280.929688 773.667969 282.097656 772.503906 283.523438 772.503906 C 284.949219 772.503906 286.113281 773.667969 286.113281 775.09375 C 286.113281 776.519531 284.949219 777.6875 283.523438 777.6875 C 282.097656 777.6875 280.929688 776.546875 280.929688 775.09375 Z M 280.929688 795.414062 C 280.929688 793.988281 282.097656 792.824219 283.523438 792.824219 C 284.949219 792.824219 286.113281 793.988281 286.113281 795.414062 C 286.113281 796.839844 284.949219 798.007812 283.523438 798.007812 C 282.097656 798.007812 280.929688 796.839844 280.929688 795.414062 Z M 280.929688 815.707031 C 280.929688 814.28125 282.097656 813.117188 283.523438 813.117188 C 284.949219 813.117188 286.113281 814.28125 286.113281 815.707031 C 286.113281 817.132812 284.949219 818.300781 283.523438 818.300781 C 282.097656 818.300781 280.929688 817.132812 280.929688 815.707031 Z M 280.929688 754.800781 C 280.929688 753.375 282.097656 752.210938 283.523438 752.210938 C 284.949219 752.210938 286.113281 753.375 286.113281 754.800781 C 286.113281 756.226562 284.949219 757.394531 283.523438 757.394531 C 282.097656 757.394531 280.929688 756.226562 280.929688 754.800781 Z M 352.722656 775.09375 C 352.722656 773.667969 353.890625 772.503906 355.316406 772.503906 C 356.742188 772.503906 357.90625 773.667969 357.90625 775.09375 C 357.90625 776.519531 356.742188 777.6875 355.316406 777.6875 C 353.890625 777.6875 352.722656 776.546875 352.722656 775.09375 Z M 352.722656 795.414062 C 352.722656 793.988281 353.890625 792.824219 355.316406 792.824219 C 356.742188 792.824219 357.90625 793.988281 357.90625 795.414062 C 357.90625 796.839844 356.742188 798.007812 355.316406 798.007812 C 353.890625 798.007812 352.722656 796.839844 352.722656 795.414062 Z M 352.722656 815.707031 C 352.722656 814.28125 353.890625 813.117188 355.316406 813.117188 C 356.742188 813.117188 357.90625 814.28125 357.90625 815.707031 C 357.90625 817.132812 356.742188 818.300781 355.316406 818.300781 C 353.890625 818.300781 352.722656 817.132812 352.722656 815.707031 Z M 352.722656 754.800781 C 352.722656 753.375 353.890625 752.210938 355.316406 752.210938 C 356.742188 752.210938 357.90625 753.375 357.90625 754.800781 C 357.90625 756.226562 356.742188 757.394531 355.316406 757.394531 C 353.890625 757.394531 352.722656 756.226562 352.722656 754.800781 Z M 352.722656 754.800781 " fill-opacity="1" fill-rule="nonzero"/></g><g mask="url(#1168e5478f)"><g transform="matrix(1, 0, 0, 1, 280, 177)"><g clip-path="url(#618add0666)"><g clip-path="url(#06491178c8)"><g clip-path="url(#b8cf09aa70)"><path fill="#ffbc00" d="M 0.933594 0.132812 L 60.632812 0.132812 L 60.632812 59.832031 L 0.933594 59.832031 Z M 0.933594 0.132812 " fill-opacity="1" fill-rule="nonzero"/></g></g></g></g></g><g clip-path="url(#a9d0890b20)"><g clip-path="url(#5754c19688)"><g clip-path="url(#d797a18a8f)"><path fill="#ffbc00" d="M 1206.742188 657.570312 L 1078.460938 572.199219 C 1081.132812 572.152344 1083.804688 572.179688 1086.445312 572.285156 L 1203.578125 650.234375 C 1204.699219 652.632812 1205.753906 655.085938 1206.742188 657.570312 " fill-opacity="1" fill-rule="nonzero"/></g></g></g><g clip-path="url(#69e8408cde)"><g clip-path="url(#8c7c96c2b0)"><g clip-path="url(#a4fad8550f)"><path fill="#ffbc00" d="M 1214.410156 685.355469 L 1049.867188 575.851562 C 1051.378906 575.492188 1052.898438 575.15625 1054.433594 574.847656 C 1054.90625 574.753906 1055.375 574.660156 1055.832031 574.582031 L 1213.28125 679.363281 C 1213.386719 679.8125 1213.480469 680.285156 1213.574219 680.753906 C 1213.882812 682.289062 1214.160156 683.820312 1214.410156 685.355469 " fill-opacity="1" fill-rule="nonzero"/></g></g></g><g clip-path="url(#46466e2724)"><g clip-path="url(#7e6018b747)"><g clip-path="url(#06713b6982)"><path fill="#ffbc00" d="M 1216.230469 709.238281 L 1027.132812 583.394531 C 1028.726562 582.691406 1030.355469 582.023438 1031.992188 581.398438 L 1216.195312 703.988281 C 1216.253906 705.738281 1216.265625 707.496094 1216.230469 709.238281 " fill-opacity="1" fill-rule="nonzero"/></g></g></g><g clip-path="url(#436ec11af2)"><g clip-path="url(#a359152af6)"><g clip-path="url(#8188f5e40e)"><path fill="#ffbc00" d="M 1214.238281 730.597656 L 1008.203125 593.480469 C 1009.550781 592.601562 1010.90625 591.765625 1012.304688 590.96875 L 1214.972656 725.84375 C 1214.777344 727.4375 1214.527344 729.011719 1214.238281 730.597656 " fill-opacity="1" fill-rule="nonzero"/></g></g></g><g clip-path="url(#184b677a66)"><g clip-path="url(#90e6357b94)"><g clip-path="url(#762df04b53)"><path fill="#ffbc00" d="M 1209.339844 750.003906 L 992.191406 605.496094 C 993.320312 604.496094 994.472656 603.523438 995.644531 602.5625 L 1210.707031 745.6875 C 1210.273438 747.136719 1209.824219 748.578125 1209.339844 750.003906 " fill-opacity="1" fill-rule="nonzero"/></g></g></g><g clip-path="url(#0312a4ca0b)"><g clip-path="url(#77a96dab07)"><g clip-path="url(#77ee09531e)"><path fill="#ffbc00" d="M 1201.980469 767.792969 L 978.621094 619.148438 C 979.585938 618.039062 980.5625 616.9375 981.5625 615.863281 L 1203.875 763.8125 C 1203.269531 765.148438 1202.632812 766.476562 1201.980469 767.792969 " fill-opacity="1" fill-rule="nonzero"/></g></g></g><g clip-path="url(#2ddcda7842)"><g clip-path="url(#78d830fadd)"><g clip-path="url(#94517e85e6)"><path fill="#ffbc00" d="M 1192.363281 784.0625 L 967.332031 634.304688 C 968.105469 633.082031 968.914062 631.867188 969.742188 630.679688 L 1194.773438 780.4375 C 1193.996094 781.660156 1193.191406 782.875 1192.363281 784.0625 " fill-opacity="1" fill-rule="nonzero"/></g></g></g><g clip-path="url(#30c6e83180)"><g clip-path="url(#ce9b198fc8)"><g clip-path="url(#f1fdc99d5f)"><path fill="#ffbc00" d="M 1180.539062 798.878906 L 958.226562 650.929688 C 958.832031 649.59375 959.46875 648.265625 960.121094 646.949219 L 1183.480469 795.59375 C 1182.519531 796.703125 1181.539062 797.800781 1180.539062 798.878906 " fill-opacity="1" fill-rule="nonzero"/></g></g></g><g clip-path="url(#01fbe172c8)"><g clip-path="url(#29b30fae43)"><g clip-path="url(#4a83d22271)"><path fill="#ffbc00" d="M 1166.457031 812.179688 L 951.394531 669.054688 C 951.828125 667.605469 952.28125 666.164062 952.765625 664.738281 L 1169.914062 809.246094 C 1168.78125 810.246094 1167.628906 811.21875 1166.457031 812.179688 " fill-opacity="1" fill-rule="nonzero"/></g></g></g><g clip-path="url(#4a2269b71f)"><g clip-path="url(#5011abbb40)"><g clip-path="url(#161de88b0a)"><path fill="#ffbc00" d="M 1149.800781 823.773438 L 947.128906 688.898438 C 947.328125 687.304688 947.574219 685.730469 947.863281 684.144531 L 1153.902344 821.261719 C 1152.554688 822.140625 1151.195312 822.976562 1149.800781 823.773438 " fill-opacity="1" fill-rule="nonzero"/></g></g></g><g clip-path="url(#4016c2ef4e)"><g clip-path="url(#ba408779bd)"><g clip-path="url(#403bbcd937)"><path fill="#ffbc00" d="M 1130.109375 833.34375 L 945.90625 710.753906 C 945.851562 709.003906 945.835938 707.246094 945.871094 705.503906 L 1134.96875 831.347656 C 1133.375 832.050781 1131.75 832.71875 1130.109375 833.34375 " fill-opacity="1" fill-rule="nonzero"/></g></g></g><g clip-path="url(#ae010c0c98)"><g clip-path="url(#bf3b1e05ee)"><g clip-path="url(#984c1e9a8d)"><path fill="#ffbc00" d="M 1107.667969 839.894531 C 1107.199219 839.988281 1106.726562 840.082031 1106.269531 840.160156 L 948.824219 735.378906 C 948.71875 734.929688 948.621094 734.457031 948.527344 733.988281 C 948.21875 732.449219 947.941406 730.921875 947.691406 729.386719 L 1112.234375 838.890625 C 1110.722656 839.25 1109.207031 839.585938 1107.667969 839.894531 " fill-opacity="1" fill-rule="nonzero"/></g></g></g><g clip-path="url(#af4c56a7a4)"><g clip-path="url(#ff395875aa)"><g clip-path="url(#50e4384d06)"><path fill="#ffbc00" d="M 1083.640625 842.542969 C 1080.96875 842.589844 1078.300781 842.5625 1075.65625 842.457031 L 958.523438 764.507812 C 957.40625 762.109375 956.351562 759.65625 955.363281 757.171875 L 1083.640625 842.542969 " fill-opacity="1" fill-rule="nonzero"/></g></g></g><g clip-path="url(#402bfa8fb4)"><g clip-path="url(#45ba39a59a)"><g clip-path="url(#e3cfa8fc9c)"><path fill="#ffbc00" d="M 1184.027344 619.78125 L 1122.085938 578.5625 C 1129.253906 580.839844 1136.214844 583.722656 1142.859375 587.15625 L 1168.078125 603.9375 C 1173.8125 608.742188 1179.160156 614.050781 1184.027344 619.78125 " fill-opacity="1" fill-rule="nonzero"/></g></g></g><g clip-path="url(#aae04030a0)"><g clip-path="url(#4f9a9f990d)"><g clip-path="url(#7bccd8a4ca)"><path fill="#ffbc00" d="M 1040.015625 836.179688 C 1032.847656 833.902344 1025.886719 831.019531 1019.242188 827.585938 L 994.023438 810.804688 C 988.289062 806 982.945312 800.691406 978.074219 794.957031 L 1040.015625 836.179688 " fill-opacity="1" fill-rule="nonzero"/></g></g></g></svg>