<svg xmlns="http://www.w3.org/2000/svg" xmlns:xlink="http://www.w3.org/1999/xlink" width="285" zoomAndPan="magnify" viewBox="0 0 213.75 284.999983" height="380" preserveAspectRatio="xMidYMid meet" version="1.0"><defs><clipPath id="d30efebbfd"><path d="M 10 37.300781 L 213.5 37.300781 L 213.5 247.804688 L 10 247.804688 Z M 10 37.300781 " clip-rule="nonzero"/></clipPath><clipPath id="76cb4a0c5f"><path d="M 10 37.300781 L 203 37.300781 L 203 182 L 10 182 Z M 10 37.300781 " clip-rule="nonzero"/></clipPath><clipPath id="53d96429c5"><path d="M 46 136 L 213.5 136 L 213.5 247.804688 L 46 247.804688 Z M 46 136 " clip-rule="nonzero"/></clipPath></defs><g clip-path="url(#d30efebbfd)"><path fill="#f4f4ed" d="M 35.066406 84.28125 C 36.050781 84.28125 37.039062 84.054688 37.875 83.601562 C 41.289062 82.007812 43.71875 77.527344 43.71875 72.367188 C 43.71875 67.128906 41.289062 62.726562 37.875 61.132812 C 36.960938 60.679688 36.050781 60.453125 35.066406 60.453125 C 30.285156 60.453125 26.414062 65.765625 26.414062 72.367188 C 26.414062 78.96875 30.359375 84.28125 35.066406 84.28125 Z M 30.585938 72.367188 C 30.585938 68.191406 32.5625 64.851562 35.066406 64.851562 C 35.597656 64.851562 36.050781 65.003906 36.507812 65.308594 C 38.253906 66.296875 39.542969 69.101562 39.542969 72.441406 C 39.542969 75.707031 38.253906 78.515625 36.507812 79.578125 C 36.050781 79.878906 35.519531 80.03125 35.066406 80.03125 C 32.5625 79.957031 30.585938 76.542969 30.585938 72.367188 Z M 213.121094 239.035156 C 213.121094 239.71875 213.121094 240.402344 213.121094 241.164062 C 213.121094 242.453125 213.121094 243.820312 213.121094 245.109375 C 213.121094 245.792969 213.121094 246.398438 213.121094 247.082031 C 213.121094 247.15625 213.121094 247.15625 213.121094 247.234375 C 213.121094 247.308594 213.042969 247.308594 213.042969 247.386719 C 213.042969 247.386719 213.042969 247.386719 212.96875 247.386719 C 212.890625 247.386719 212.890625 247.460938 212.816406 247.460938 C 212.742188 247.460938 212.742188 247.460938 212.664062 247.460938 C 212.210938 247.460938 211.828125 247.460938 211.375 247.460938 C 210.917969 247.460938 210.464844 247.460938 209.933594 247.460938 C 209.933594 247.460938 209.933594 247.460938 209.855469 247.460938 C 207.882812 247.460938 205.984375 247.460938 204.011719 247.386719 C 201.355469 247.386719 198.625 247.308594 195.96875 247.308594 C 194.144531 247.308594 192.324219 247.308594 190.503906 247.234375 C 189.136719 247.234375 187.769531 247.234375 186.402344 247.234375 C 182.988281 247.234375 179.574219 247.15625 176.15625 247.15625 C 172.820312 247.15625 169.480469 247.082031 166.0625 247.082031 C 164.089844 247.082031 162.191406 247.082031 160.21875 247.007812 C 159.15625 247.007812 158.171875 247.007812 157.109375 247.007812 C 156.957031 247.007812 156.878906 247.007812 156.726562 247.007812 C 154.832031 247.007812 153.007812 247.007812 151.113281 246.929688 C 150.429688 246.929688 149.746094 246.929688 149.136719 246.929688 C 148.226562 246.929688 147.242188 246.929688 146.332031 246.929688 C 145.570312 246.929688 144.8125 246.929688 144.054688 246.929688 C 143.445312 246.929688 142.761719 246.929688 142.15625 246.929688 C 142.003906 246.929688 141.851562 246.855469 141.777344 246.703125 C 141.777344 246.625 141.777344 246.625 141.777344 246.550781 C 141.777344 246.171875 141.777344 245.792969 141.777344 245.335938 C 141.777344 243.96875 141.851562 242.605469 141.851562 241.3125 C 141.851562 240.933594 141.851562 240.554688 141.851562 240.25 C 141.851562 239.339844 141.851562 238.355469 141.929688 237.441406 C 141.550781 236.910156 141.09375 236.304688 140.714844 235.699219 C 140.636719 235.621094 140.5625 235.546875 140.5625 235.394531 C 140.183594 234.785156 139.878906 234.253906 139.5 233.648438 C 139.273438 233.269531 139.042969 232.8125 138.890625 232.433594 C 138.816406 232.28125 138.742188 232.207031 138.742188 232.054688 C 138.511719 231.523438 138.210938 230.992188 137.980469 230.535156 C 137.90625 230.308594 137.753906 230.082031 137.679688 229.851562 C 136.84375 227.957031 136.085938 225.90625 135.402344 223.933594 C 135.402344 223.859375 135.324219 223.707031 135.324219 223.628906 C 135.097656 223.023438 134.945312 222.492188 134.71875 221.882812 C 134.71875 221.808594 134.640625 221.734375 134.640625 221.65625 C 134.414062 220.972656 134.1875 220.289062 134.035156 219.683594 C 133.65625 218.394531 133.277344 217.101562 132.898438 215.8125 C 132.898438 215.738281 132.898438 215.738281 132.898438 215.660156 C 132.214844 213.308594 131.605469 210.878906 131.074219 208.449219 C 130.773438 207.3125 130.542969 206.171875 130.316406 205.035156 C 130.011719 203.820312 129.785156 202.605469 129.558594 201.316406 C 129.253906 199.949219 129.027344 198.507812 128.722656 197.140625 C 128.496094 196.078125 128.34375 195.015625 128.113281 193.953125 C 128.039062 193.421875 127.886719 192.816406 127.8125 192.285156 C 127.734375 191.675781 127.582031 190.996094 127.507812 190.386719 C 127.507812 190.160156 127.433594 190.007812 127.433594 189.78125 C 127.433594 189.703125 127.433594 189.703125 127.433594 189.628906 C 127.28125 188.566406 127.128906 187.578125 126.902344 186.515625 C 126.824219 186.136719 126.75 185.757812 126.75 185.378906 C 126.75 185.226562 126.671875 185.148438 126.671875 185 C 126.671875 184.617188 126.976562 184.46875 127.203125 184.238281 C 127.355469 184.085938 127.507812 184.011719 127.660156 183.859375 C 128.039062 183.554688 128.496094 183.175781 128.875 182.875 C 129.253906 182.570312 129.632812 182.265625 130.011719 181.886719 C 130.011719 181.886719 129.9375 181.886719 129.9375 181.8125 C 129.9375 181.8125 129.9375 181.8125 129.859375 181.8125 C 129.859375 181.734375 129.785156 181.734375 129.785156 181.660156 C 128.949219 177.332031 127.582031 173.234375 125.914062 169.136719 C 125.308594 167.617188 124.699219 166.175781 124.167969 164.582031 C 123.789062 163.59375 123.410156 162.53125 123.484375 161.46875 C 123.5625 160.636719 123.863281 159.875 124.320312 159.117188 C 124.777344 158.359375 125.308594 157.75 125.761719 156.992188 C 126.292969 156.15625 126.519531 155.324219 126.445312 154.335938 C 126.371094 153.425781 126.597656 152.667969 127.203125 151.984375 C 127.734375 151.375 128.417969 150.996094 129.027344 150.390625 C 129.632812 149.78125 129.9375 149.097656 130.164062 148.265625 C 130.316406 147.503906 130.390625 146.671875 130.695312 145.910156 C 130.773438 145.683594 130.847656 145.53125 131 145.378906 C 131 145.378906 131.074219 145.304688 131.074219 145.304688 C 131.152344 145.226562 131.226562 145.078125 131.378906 145 C 131.453125 144.925781 131.453125 144.925781 131.53125 144.847656 C 131.605469 144.773438 131.683594 144.695312 131.835938 144.695312 C 131.910156 144.695312 131.984375 144.621094 131.984375 144.621094 C 132.0625 144.621094 132.136719 144.546875 132.214844 144.546875 C 132.367188 144.46875 132.59375 144.46875 132.746094 144.46875 C 132.746094 144.46875 132.820312 144.46875 132.820312 144.46875 C 132.972656 144.46875 133.046875 144.46875 133.199219 144.46875 C 133.199219 144.46875 133.277344 144.46875 133.277344 144.46875 C 133.578125 144.546875 133.882812 144.621094 134.1875 144.773438 C 134.339844 144.847656 134.492188 144.925781 134.640625 145.078125 C 135.476562 145.683594 135.855469 146.519531 136.160156 147.429688 C 136.386719 146.140625 136.691406 144.089844 136.996094 142.117188 C 137.296875 140.066406 137.601562 138.167969 137.753906 137.257812 C 137.679688 137.257812 137.527344 137.183594 137.449219 137.105469 C 137.296875 137.03125 137.148438 137.03125 136.996094 136.957031 C 136.3125 136.652344 135.933594 135.816406 135.476562 135.210938 C 133.808594 132.707031 133.351562 129.746094 133.351562 126.785156 C 133.277344 121.851562 134.035156 116.84375 136.539062 112.515625 C 137.296875 111.152344 138.285156 109.859375 139.347656 108.722656 C 139.878906 108.191406 140.410156 107.582031 141.09375 107.128906 C 141.246094 107.050781 141.398438 106.976562 141.550781 106.976562 C 141.699219 106.976562 141.851562 106.976562 142.003906 106.976562 C 142.761719 107.050781 143.523438 107.128906 144.207031 107.28125 C 145.34375 107.429688 146.558594 107.660156 147.695312 107.886719 C 147.695312 107.886719 147.773438 107.886719 147.773438 107.886719 C 147.773438 107.886719 147.847656 107.886719 147.847656 107.960938 C 148.074219 108.039062 148.226562 108.113281 148.378906 108.191406 C 148.53125 108.265625 148.683594 108.417969 148.835938 108.570312 C 148.910156 108.644531 148.910156 108.644531 148.988281 108.722656 C 149.136719 108.875 149.214844 108.949219 149.367188 109.101562 C 149.441406 109.175781 149.441406 109.253906 149.519531 109.253906 C 149.59375 109.40625 149.746094 109.554688 149.820312 109.707031 C 149.898438 109.785156 149.898438 109.859375 149.972656 109.9375 C 150.050781 110.085938 150.125 110.238281 150.199219 110.46875 C 150.277344 110.542969 150.277344 110.617188 150.277344 110.695312 C 150.351562 110.847656 150.429688 111.074219 150.503906 111.226562 C 150.503906 111.300781 150.582031 111.378906 150.582031 111.53125 C 150.65625 111.757812 150.734375 111.910156 150.734375 112.136719 C 150.734375 112.214844 150.808594 112.363281 150.808594 112.441406 C 150.882812 112.667969 150.882812 112.894531 150.960938 113.125 C 150.960938 113.199219 151.035156 113.351562 151.035156 113.425781 C 151.113281 113.65625 151.113281 113.957031 151.1875 114.1875 C 151.1875 114.261719 151.1875 114.414062 151.265625 114.488281 C 151.265625 114.792969 151.339844 115.019531 151.339844 115.324219 C 151.339844 115.402344 151.339844 115.550781 151.339844 115.628906 C 151.339844 115.933594 151.339844 116.234375 151.414062 116.539062 C 151.414062 116.613281 151.414062 116.765625 151.414062 116.84375 C 151.414062 117.144531 151.414062 117.527344 151.414062 117.90625 C 151.414062 117.980469 151.414062 118.058594 151.414062 118.132812 C 151.414062 118.511719 151.414062 118.890625 151.339844 119.269531 C 151.339844 119.347656 151.339844 119.347656 151.339844 119.421875 C 151.265625 120.789062 151.035156 122.308594 150.734375 123.824219 C 150.351562 125.796875 149.820312 127.621094 149.214844 129.289062 C 149.136719 129.441406 149.136719 129.59375 149.0625 129.667969 C 148.988281 129.898438 148.910156 130.125 148.835938 130.351562 C 148.835938 130.429688 148.835938 130.429688 148.757812 130.503906 C 148.605469 130.882812 148.457031 131.1875 148.304688 131.566406 C 148.304688 131.566406 148.304688 131.644531 148.304688 131.644531 C 148.304688 131.644531 148.304688 131.644531 148.304688 131.71875 C 148.304688 131.71875 148.304688 131.792969 148.226562 131.792969 C 147.773438 132.855469 147.242188 133.769531 146.632812 134.527344 C 146.632812 134.527344 146.558594 134.601562 146.558594 134.601562 C 146.179688 135.132812 145.875 135.511719 145.496094 135.894531 C 145.417969 135.96875 145.417969 135.96875 145.34375 136.042969 C 145.191406 136.195312 145.039062 136.347656 144.886719 136.425781 C 144.886719 136.425781 144.8125 136.5 144.8125 136.5 C 144.433594 136.804688 144.054688 137.03125 143.675781 137.183594 C 143.675781 137.183594 143.597656 137.183594 143.597656 137.257812 C 143.445312 137.335938 143.371094 137.335938 143.21875 137.410156 C 143.144531 137.410156 143.144531 137.410156 143.066406 137.488281 C 142.914062 137.488281 142.761719 137.5625 142.535156 137.5625 C 142.460938 138.167969 142.382812 138.777344 142.308594 139.382812 C 141.851562 142.34375 141.472656 145.378906 141.019531 148.339844 C 141.019531 148.414062 141.019531 148.492188 141.019531 148.566406 C 141.019531 148.566406 141.09375 148.566406 141.09375 148.566406 C 142.613281 149.097656 143.371094 150.691406 143.824219 152.136719 C 144.355469 153.578125 144.738281 155.09375 145.117188 156.535156 C 145.648438 158.660156 146.027344 160.863281 145.570312 162.988281 C 145.191406 165.039062 143.902344 166.859375 142.992188 168.605469 C 142.535156 169.4375 142.082031 170.199219 141.777344 171.035156 C 141.777344 171.109375 141.699219 171.183594 141.699219 171.183594 C 141.625 171.261719 141.625 171.414062 141.550781 171.488281 C 141.550781 171.566406 141.472656 171.640625 141.472656 171.792969 C 141.472656 171.867188 141.472656 171.867188 141.398438 171.945312 C 141.320312 172.097656 141.320312 172.246094 141.320312 172.398438 C 141.398438 172.324219 141.472656 172.246094 141.550781 172.246094 C 141.625 172.246094 141.625 172.171875 141.699219 172.171875 C 141.777344 172.171875 141.777344 172.171875 141.851562 172.171875 C 141.929688 172.171875 142.082031 172.246094 142.082031 172.324219 C 143.523438 175.511719 144.964844 178.699219 146.332031 181.886719 C 147.621094 184.769531 148.910156 187.578125 150.199219 190.460938 C 151.113281 192.4375 151.945312 194.410156 152.859375 196.382812 C 153.085938 196.914062 153.3125 197.445312 153.539062 197.902344 C 154.832031 192.058594 157.183594 186.59375 159.765625 181.203125 C 159.914062 180.898438 160.066406 180.597656 160.21875 180.292969 C 160.75 179.152344 161.28125 178.015625 161.890625 176.878906 C 162.042969 176.648438 162.117188 176.421875 162.269531 176.195312 C 162.421875 175.964844 162.496094 175.738281 162.648438 175.511719 C 162.875 175.132812 163.027344 174.753906 163.253906 174.371094 C 163.332031 174.296875 163.332031 174.144531 163.40625 174.070312 C 163.40625 174.070312 163.484375 173.992188 163.484375 173.992188 C 163.785156 173.460938 164.089844 173.007812 164.46875 172.550781 C 164.699219 172.324219 164.847656 172.019531 165.078125 171.792969 C 165.835938 170.882812 166.671875 170.046875 167.65625 169.210938 C 167.886719 169.058594 168.113281 168.832031 168.265625 168.679688 C 168.265625 168.605469 168.265625 168.527344 168.265625 168.527344 C 168.265625 168.226562 168.265625 167.921875 168.265625 167.617188 C 168.265625 167.3125 168.265625 167.085938 168.265625 166.78125 C 168.265625 166.78125 168.265625 166.707031 168.265625 166.707031 C 168.265625 166.480469 168.265625 166.175781 168.265625 165.949219 C 168.265625 165.644531 168.265625 165.265625 168.265625 164.960938 C 168.265625 164.886719 168.265625 164.808594 168.265625 164.65625 C 168.265625 164.203125 168.1875 163.824219 168.113281 163.367188 C 168.113281 163.214844 168.035156 162.988281 168.035156 162.835938 C 167.960938 162.457031 167.886719 162.078125 167.808594 161.699219 C 167.734375 161.394531 167.65625 161.167969 167.65625 160.863281 C 167.582031 160.558594 167.503906 160.253906 167.429688 159.953125 C 167.355469 159.648438 167.277344 159.34375 167.203125 159.042969 C 167.125 158.890625 167.125 158.738281 167.050781 158.660156 C 166.671875 157.597656 166.292969 156.460938 165.761719 155.398438 C 165.609375 155.019531 165.457031 154.714844 165.230469 154.335938 C 165.152344 154.335938 165 154.335938 164.925781 154.335938 C 164.773438 154.335938 164.699219 154.335938 164.546875 154.335938 C 164.167969 154.335938 163.785156 154.410156 163.332031 154.410156 C 163.105469 154.410156 162.800781 154.410156 162.574219 154.410156 C 162.496094 154.410156 162.421875 154.410156 162.421875 154.410156 C 161.738281 154.410156 160.980469 154.335938 160.296875 154.109375 C 159.308594 153.730469 158.550781 153.046875 157.941406 152.285156 C 156.5 150.464844 155.816406 148.1875 155.285156 145.988281 C 154.375 141.964844 153.996094 137.867188 153.996094 133.769531 C 153.539062 133.386719 153.007812 133.007812 152.628906 132.554688 C 152.023438 131.945312 151.1875 131.035156 151.265625 130.125 C 151.265625 129.972656 151.265625 129.820312 151.339844 129.667969 C 151.414062 129.515625 151.492188 129.367188 151.566406 129.289062 C 151.644531 129.214844 151.644531 129.136719 151.71875 129.136719 C 151.945312 128.910156 152.175781 128.683594 152.402344 128.53125 C 152.476562 128.453125 152.554688 128.378906 152.628906 128.378906 C 153.464844 127.695312 154.375 127.089844 155.285156 126.40625 C 156.121094 125.796875 157.03125 125.191406 157.789062 124.507812 C 158.019531 124.355469 158.246094 124.128906 158.398438 123.902344 C 158.777344 123.292969 158.851562 122.382812 158.929688 121.699219 C 159.082031 120.484375 159.082031 119.347656 159.234375 118.132812 C 159.15625 118.132812 159.082031 118.132812 159.003906 118.058594 C 159.003906 118.058594 158.929688 117.980469 158.929688 117.980469 C 158.398438 116.84375 158.09375 115.628906 157.867188 114.414062 C 157.257812 109.554688 159.15625 104.546875 161.8125 100.601562 C 162.722656 99.234375 163.710938 97.867188 165 96.882812 C 165 96.882812 165.078125 96.804688 165.078125 96.804688 C 165.152344 96.804688 165.152344 96.730469 165.230469 96.730469 C 165.230469 96.730469 165.304688 96.730469 165.304688 96.652344 C 165.457031 96.578125 165.683594 96.425781 165.835938 96.425781 C 165.835938 96.425781 165.835938 96.425781 165.910156 96.425781 C 166.0625 96.351562 166.214844 96.351562 166.367188 96.425781 C 166.441406 96.425781 166.519531 96.425781 166.59375 96.503906 C 167.277344 96.804688 167.125 97.792969 167.125 98.398438 C 167.125 99.234375 167.203125 100.296875 168.035156 100.675781 C 168.035156 100.675781 168.113281 100.675781 168.113281 100.675781 C 168.339844 100.753906 168.566406 100.753906 168.796875 100.675781 C 168.796875 100.675781 168.871094 100.675781 168.871094 100.675781 C 168.949219 100.675781 169.023438 100.601562 169.097656 100.601562 C 169.175781 100.601562 169.175781 100.601562 169.25 100.523438 C 169.25 100.523438 169.328125 100.523438 169.328125 100.523438 C 169.402344 100.523438 169.480469 100.449219 169.480469 100.449219 C 171.074219 99.84375 172.515625 98.777344 173.882812 97.792969 C 174.5625 97.335938 175.171875 96.882812 175.855469 96.425781 C 176.234375 96.199219 176.765625 95.820312 177.21875 95.742188 C 177.371094 95.742188 177.449219 95.742188 177.523438 95.742188 C 177.601562 95.742188 177.675781 95.742188 177.75 95.820312 C 177.75 95.820312 177.828125 95.820312 177.828125 95.894531 C 177.902344 95.894531 177.902344 95.972656 177.980469 96.046875 C 177.980469 96.046875 177.980469 96.121094 177.980469 96.121094 C 177.980469 96.199219 178.054688 96.273438 178.054688 96.425781 C 178.054688 96.730469 177.902344 96.957031 177.828125 97.261719 C 177.601562 97.867188 177.523438 98.476562 177.523438 99.082031 C 177.601562 99.539062 177.75 100.070312 178.207031 100.296875 C 178.28125 100.375 178.359375 100.375 178.433594 100.375 C 178.585938 100.449219 178.664062 100.449219 178.8125 100.449219 C 178.8125 100.449219 178.890625 100.449219 178.890625 100.449219 C 179.117188 100.449219 179.421875 100.449219 179.648438 100.375 C 180.789062 100.222656 181.925781 99.839844 183.066406 99.613281 C 183.367188 99.539062 183.597656 99.460938 183.898438 99.386719 C 183.898438 99.386719 183.976562 99.386719 183.976562 99.386719 C 184.203125 99.308594 184.429688 99.308594 184.660156 99.234375 C 184.734375 99.234375 184.808594 99.234375 184.886719 99.234375 C 185.113281 99.234375 185.265625 99.160156 185.492188 99.160156 C 185.570312 99.160156 185.722656 99.160156 185.796875 99.160156 C 185.949219 99.160156 186.023438 99.160156 186.175781 99.160156 C 186.253906 99.160156 186.328125 99.160156 186.480469 99.160156 C 187.390625 99.160156 188.910156 99.691406 188.679688 100.828125 C 188.605469 101.207031 188.300781 101.4375 188.226562 101.738281 C 188.148438 102.042969 188.300781 102.421875 188.453125 102.648438 C 188.910156 103.332031 189.667969 103.710938 190.425781 104.015625 C 191.867188 104.699219 193.460938 105.230469 194.601562 106.367188 C 195.054688 106.898438 195.511719 107.429688 195.664062 108.113281 C 195.738281 108.492188 195.816406 108.796875 195.816406 109.175781 C 195.816406 109.632812 195.664062 110.011719 195.738281 110.46875 C 195.890625 111.152344 196.574219 111.53125 197.179688 111.832031 C 197.863281 112.214844 198.546875 112.515625 199.230469 112.972656 C 199.839844 113.425781 200.445312 113.882812 201.050781 114.414062 C 201.582031 114.945312 202.191406 115.550781 202.496094 116.234375 C 202.796875 116.917969 202.796875 117.753906 202.796875 118.511719 C 202.796875 119.195312 202.722656 119.800781 202.722656 120.484375 C 202.722656 120.714844 202.644531 120.941406 202.644531 121.167969 C 202.570312 121.929688 202.417969 122.6875 202.191406 123.445312 C 202.113281 123.75 202.039062 123.976562 201.964844 124.28125 C 201.886719 124.585938 201.8125 124.886719 201.660156 125.191406 C 201.660156 125.191406 201.660156 125.265625 201.660156 125.265625 C 201.507812 125.648438 201.433594 125.949219 201.28125 126.328125 C 201.203125 126.480469 201.128906 126.632812 201.128906 126.785156 C 201.050781 127.011719 200.902344 127.316406 200.824219 127.542969 C 200.75 127.695312 200.75 127.773438 200.671875 127.921875 C 198.625 132.554688 195.585938 136.726562 192.097656 140.445312 C 191.109375 141.507812 189.972656 142.570312 188.910156 143.558594 C 188.757812 144.394531 188.832031 145.226562 188.910156 146.0625 C 189.058594 147.277344 189.363281 148.492188 189.667969 149.707031 C 189.742188 149.933594 189.820312 150.160156 189.894531 150.390625 C 189.894531 150.464844 189.972656 150.542969 189.972656 150.617188 C 190.046875 150.769531 190.046875 150.84375 190.125 150.996094 C 190.199219 151.148438 190.273438 151.375 190.351562 151.527344 C 190.425781 151.832031 190.578125 152.136719 190.65625 152.363281 C 190.65625 152.363281 190.65625 152.363281 190.65625 152.4375 C 191.035156 153.273438 191.414062 154.109375 191.867188 154.941406 C 191.945312 155.019531 191.945312 155.09375 192.019531 155.171875 C 192.398438 155.703125 192.78125 156.234375 193.234375 156.765625 C 193.3125 156.765625 193.386719 156.765625 193.460938 156.839844 C 193.460938 156.839844 193.539062 156.839844 193.539062 156.917969 C 193.917969 157.296875 194.296875 157.75 194.753906 158.128906 C 195.054688 158.433594 195.359375 158.738281 195.664062 159.042969 C 196.195312 159.648438 196.726562 160.257812 197.257812 160.9375 C 197.484375 161.167969 197.710938 161.46875 197.863281 161.699219 C 198.09375 162 198.394531 162.382812 198.625 162.683594 C 199.078125 163.292969 199.609375 163.976562 200.066406 164.65625 C 200.066406 164.65625 200.140625 164.734375 200.140625 164.734375 C 200.21875 164.808594 200.21875 164.886719 200.292969 164.886719 C 200.902344 165.71875 201.433594 166.554688 201.964844 167.464844 C 202.039062 167.542969 202.113281 167.695312 202.113281 167.769531 C 202.875 168.984375 203.558594 170.199219 204.164062 171.488281 C 204.542969 172.324219 205 173.160156 205.378906 173.992188 C 205.832031 174.902344 206.214844 175.816406 206.59375 176.800781 C 206.972656 177.789062 207.351562 178.773438 207.730469 179.761719 C 208.035156 180.597656 208.339844 181.429688 208.566406 182.34375 C 208.71875 182.949219 208.945312 183.554688 209.097656 184.164062 C 209.171875 184.390625 209.25 184.617188 209.25 184.769531 C 209.476562 185.605469 209.703125 186.363281 209.855469 187.199219 C 210.3125 189.019531 210.691406 190.917969 210.996094 192.738281 C 210.996094 192.738281 210.996094 192.816406 210.996094 192.816406 C 211.148438 193.726562 211.296875 194.636719 211.449219 195.546875 C 211.449219 195.699219 211.527344 195.851562 211.527344 196.078125 C 211.601562 196.761719 211.679688 197.445312 211.828125 198.203125 C 211.90625 198.582031 211.90625 198.886719 211.980469 199.265625 C 211.980469 199.570312 212.058594 199.949219 212.058594 200.253906 C 212.132812 200.859375 212.210938 201.542969 212.210938 202.152344 C 212.285156 203.289062 212.359375 204.429688 212.4375 205.492188 C 212.511719 206.78125 212.589844 208.070312 212.664062 209.4375 C 212.664062 209.589844 212.664062 209.742188 212.664062 209.894531 C 212.742188 210.957031 212.742188 212.019531 212.816406 213.082031 C 212.816406 213.613281 212.890625 214.144531 212.890625 214.597656 C 212.890625 215.28125 212.96875 215.964844 212.96875 216.722656 C 213.042969 218.089844 213.042969 219.53125 213.121094 220.898438 C 212.96875 227.195312 213.042969 233.117188 213.121094 239.035156 Z M 113.316406 60.984375 C 114.679688 63.714844 115.742188 66.066406 115.742188 66.445312 C 115.742188 66.828125 115.441406 67.28125 114.910156 67.660156 C 114.453125 68.039062 113.847656 68.34375 113.390625 68.496094 C 113.238281 68.570312 113.011719 68.570312 112.859375 68.570312 C 112.40625 68.570312 112.023438 68.34375 111.796875 67.964844 C 111.492188 67.433594 110.429688 64.929688 109.367188 62.195312 C 109.066406 61.4375 108.761719 60.601562 108.457031 59.84375 C 107.394531 57.1875 106.484375 54.835938 106.410156 54.53125 L 107.167969 54.226562 C 106.484375 54.378906 105.726562 54.53125 104.964844 54.53125 C 103.902344 54.53125 102.917969 54.304688 102.007812 54 C 98.667969 52.785156 96.3125 49.597656 96.3125 45.878906 C 96.3125 42.085938 98.742188 38.894531 102.160156 37.757812 C 103.070312 37.453125 103.980469 37.300781 104.964844 37.300781 C 105.953125 37.300781 106.863281 37.453125 107.773438 37.757812 C 111.191406 38.894531 113.617188 42.160156 113.617188 45.953125 C 113.617188 49.066406 111.949219 51.800781 109.519531 53.316406 C 110.429688 55.136719 112.023438 58.25 113.316406 60.984375 Z M 100.792969 89.445312 L 100.035156 100.222656 L 99.273438 111 L 30.890625 120.5625 L 31.878906 109.632812 L 32.863281 98.703125 Z M 25.730469 79.199219 L 25.503906 81.625 L 25.351562 83.980469 L 10.246094 84.359375 L 10.019531 79.578125 L 12.980469 79.425781 L 15.9375 79.273438 L 16.015625 72.367188 L 16.089844 65.460938 L 15.105469 66.445312 L 14.117188 67.507812 L 11.15625 65.613281 L 13.890625 62.273438 L 16.621094 58.933594 L 19.808594 59.539062 L 20.039062 69.484375 L 20.265625 79.425781 L 25.730469 79.425781 Z M 25.730469 79.199219 " fill-opacity="1" fill-rule="nonzero"/></g><g clip-path="url(#76cb4a0c5f)"><path fill="#000000" d="M 177.449219 130.351562 C 176.539062 130.503906 175.703125 130.808594 174.867188 131.261719 C 174.867188 131.339844 174.867188 131.414062 174.867188 131.492188 C 174.488281 132.855469 174.261719 134.300781 174.03125 135.742188 C 174.03125 135.96875 173.730469 136.042969 173.578125 135.96875 C 173.351562 135.894531 173.273438 135.742188 173.273438 135.511719 C 173.425781 134.300781 173.652344 133.085938 173.957031 131.871094 C 173.5 132.25 173.121094 132.628906 172.820312 133.085938 C 172.742188 133.238281 172.515625 133.3125 172.289062 133.238281 C 172.136719 133.160156 172.058594 132.855469 172.136719 132.707031 C 173.351562 131.035156 175.246094 129.898438 177.371094 129.59375 C 177.601562 129.59375 177.75 129.820312 177.75 129.972656 C 177.828125 130.199219 177.675781 130.351562 177.449219 130.351562 Z M 164.847656 125.265625 C 164.847656 125.796875 165.609375 125.722656 165.609375 125.265625 C 165.761719 122.761719 164.316406 120.257812 162.117188 119.121094 C 161.660156 118.890625 161.28125 119.574219 161.738281 119.800781 C 163.785156 120.867188 165 123.066406 164.847656 125.265625 Z M 160.75 126.632812 C 160.75 127.621094 161.128906 128.453125 161.511719 128.453125 C 161.964844 128.453125 162.269531 127.621094 162.269531 126.632812 C 162.269531 125.648438 161.890625 124.8125 161.511719 124.8125 C 161.128906 124.8125 160.75 125.648438 160.75 126.632812 Z M 202.570312 118.816406 C 202.570312 119.5 202.570312 120.105469 202.496094 120.789062 C 202.191406 123.371094 201.507812 125.875 200.445312 128.226562 C 198.394531 132.855469 195.359375 137.03125 191.867188 140.75 C 190.804688 141.8125 189.742188 142.875 188.679688 143.863281 C 188.527344 144.695312 188.605469 145.53125 188.679688 146.367188 C 188.832031 147.582031 189.136719 148.796875 189.441406 150.007812 C 190.199219 152.515625 191.261719 155.09375 193.007812 157.144531 C 193.3125 157.523438 192.78125 158.054688 192.476562 157.675781 C 191.71875 156.765625 191.035156 155.777344 190.503906 154.714844 C 189.515625 152.742188 188.757812 150.617188 188.300781 148.492188 C 188.074219 147.277344 187.769531 145.910156 187.847656 144.695312 C 187.769531 144.773438 187.617188 144.847656 187.542969 145 C 186.632812 145.835938 185.644531 146.59375 184.582031 147.277344 C 183.671875 147.808594 182.535156 148.035156 181.472656 147.65625 C 180.484375 147.277344 179.648438 146.519531 179.042969 145.683594 C 178.359375 144.847656 177.828125 143.863281 177.296875 142.875 C 176.539062 141.507812 175.929688 140.066406 175.625 138.472656 C 174.261719 139.535156 172.589844 140.292969 170.84375 140.445312 C 170.390625 140.523438 170.390625 139.761719 170.84375 139.6875 C 172.589844 139.535156 174.261719 138.777344 175.550781 137.5625 C 176.765625 136.5 177.601562 135.210938 178.28125 133.769531 C 178.890625 132.402344 179.496094 130.65625 179.117188 129.136719 C 178.738281 127.695312 177.296875 127.089844 175.929688 127.242188 C 174.335938 127.390625 172.96875 128.453125 171.757812 129.367188 C 171.375 129.667969 170.996094 128.984375 171.375 128.683594 C 171.984375 128.226562 172.667969 127.695312 173.351562 127.316406 C 171.375 126.785156 170.011719 124.886719 168.71875 123.371094 C 166.140625 120.257812 164.546875 116.386719 164.546875 112.289062 C 164.546875 111.605469 164.621094 110.847656 164.699219 110.164062 C 164.242188 110.390625 163.785156 110.621094 163.332031 110.921875 C 161.207031 112.363281 160.371094 114.71875 159.917969 117.144531 C 159.613281 118.816406 159.613281 120.484375 159.386719 122.230469 C 159.234375 123.371094 159.082031 124.507812 158.246094 125.34375 C 156.652344 126.859375 154.679688 128 152.933594 129.367188 C 152.328125 129.820312 151.566406 130.277344 151.945312 131.113281 C 152.328125 131.945312 153.085938 132.628906 153.769531 133.238281 C 153.996094 133.386719 154.148438 133.539062 154.375 133.691406 C 154.601562 133.84375 154.601562 133.996094 154.601562 134.222656 C 154.601562 135.210938 154.679688 136.195312 154.679688 137.183594 C 154.753906 139.003906 154.984375 140.902344 155.210938 142.722656 C 155.285156 143.027344 155.285156 143.332031 155.363281 143.632812 C 155.4375 143.558594 155.515625 143.558594 155.589844 143.558594 C 156.347656 143.558594 157.183594 143.253906 157.867188 142.875 C 158.550781 142.570312 159.308594 142.117188 159.765625 141.433594 C 159.917969 141.28125 160.066406 141.207031 160.296875 141.28125 C 160.449219 141.359375 160.523438 141.660156 160.449219 141.8125 C 159.917969 142.570312 159.082031 143.101562 158.246094 143.484375 C 157.410156 143.863281 156.5 144.242188 155.589844 144.242188 C 155.589844 144.242188 155.515625 144.242188 155.515625 144.242188 C 155.742188 145.683594 156.121094 147.125 156.578125 148.492188 C 157.183594 150.238281 158.019531 152.210938 159.535156 153.347656 C 160.296875 153.878906 161.128906 154.109375 162.042969 154.109375 C 163.710938 154.03125 165.304688 153.957031 166.972656 153.878906 C 169.25 153.730469 171.527344 153.578125 173.804688 153.273438 C 174.261719 153.199219 174.261719 153.957031 173.804688 154.03125 C 171.226562 154.335938 168.566406 154.5625 165.988281 154.714844 C 168.265625 159.191406 169.328125 164.277344 168.949219 169.289062 C 168.949219 169.742188 168.1875 169.742188 168.1875 169.289062 C 168.566406 164.277344 167.503906 159.191406 165.152344 154.792969 C 164.925781 154.792969 164.699219 154.792969 164.46875 154.867188 C 163.105469 154.941406 161.585938 155.171875 160.21875 154.714844 C 159.234375 154.335938 158.472656 153.652344 157.867188 152.894531 C 156.425781 151.074219 155.742188 148.796875 155.210938 146.59375 C 154.300781 142.570312 153.921875 138.472656 153.921875 134.375 C 153.464844 133.996094 152.933594 133.617188 152.476562 133.160156 C 151.871094 132.554688 151.035156 131.644531 151.113281 130.730469 C 151.113281 129.898438 151.945312 129.367188 152.476562 128.910156 C 153.3125 128.226562 154.222656 127.621094 155.132812 126.9375 C 155.96875 126.328125 156.878906 125.722656 157.640625 125.039062 C 157.867188 124.886719 158.09375 124.660156 158.246094 124.433594 C 158.625 123.824219 158.703125 122.914062 158.777344 122.230469 C 158.929688 121.015625 158.929688 119.878906 159.082031 118.664062 C 158.929688 118.664062 158.851562 118.664062 158.777344 118.511719 C 158.246094 117.375 157.941406 116.160156 157.714844 114.945312 C 157.109375 110.085938 159.003906 105.078125 161.660156 101.132812 C 162.574219 99.765625 163.558594 98.398438 164.847656 97.414062 C 165.304688 97.109375 165.988281 96.730469 166.519531 96.957031 C 167.203125 97.261719 167.050781 98.246094 167.050781 98.855469 C 167.050781 99.691406 167.125 100.753906 167.960938 101.132812 C 168.417969 101.285156 169.023438 101.054688 169.480469 100.90625 C 171.074219 100.296875 172.4375 99.234375 173.882812 98.324219 C 174.5625 97.867188 175.171875 97.414062 175.855469 96.957031 C 176.308594 96.730469 176.765625 96.351562 177.21875 96.273438 C 177.675781 96.199219 178.054688 96.351562 178.054688 96.882812 C 178.054688 97.183594 177.902344 97.414062 177.828125 97.714844 C 177.601562 98.324219 177.523438 98.929688 177.523438 99.539062 C 177.601562 99.992188 177.75 100.523438 178.207031 100.753906 C 178.664062 100.980469 179.195312 100.980469 179.648438 100.90625 C 180.789062 100.753906 181.925781 100.371094 183.066406 100.144531 C 184.203125 99.917969 185.339844 99.613281 186.480469 99.613281 C 187.390625 99.691406 188.910156 100.144531 188.679688 101.285156 C 188.605469 101.664062 188.300781 101.890625 188.226562 102.195312 C 188.148438 102.5 188.300781 102.878906 188.453125 103.105469 C 188.910156 103.789062 189.667969 104.167969 190.425781 104.472656 C 191.867188 105.15625 193.460938 105.6875 194.601562 106.824219 C 195.054688 107.355469 195.511719 107.886719 195.664062 108.570312 C 195.738281 108.875 195.816406 109.253906 195.816406 109.632812 C 195.816406 110.085938 195.664062 110.46875 195.738281 110.921875 C 195.890625 111.605469 196.574219 111.984375 197.179688 112.289062 C 197.863281 112.667969 198.546875 112.972656 199.230469 113.425781 C 199.839844 113.882812 200.445312 114.339844 201.050781 114.871094 C 201.582031 115.402344 202.191406 116.007812 202.496094 116.691406 C 202.644531 117.222656 202.570312 118.058594 202.570312 118.816406 Z M 177.296875 96.730469 Z M 140.410156 122.15625 C 141.625 115.855469 144.507812 109.632812 147.242188 110.164062 C 148.53125 110.390625 149.367188 111.984375 149.671875 114.71875 C 149.972656 117.222656 149.820312 120.484375 149.140625 123.902344 C 148 129.898438 145.34375 135.96875 142.6875 135.96875 C 142.613281 135.96875 142.460938 135.96875 142.382812 135.894531 C 141.09375 135.664062 140.257812 134.070312 139.957031 131.414062 C 139.574219 128.835938 139.804688 125.570312 140.410156 122.15625 Z M 148.683594 122.382812 C 146.101562 124.660156 143.292969 126.710938 140.789062 129.214844 C 140.714844 129.289062 140.636719 129.367188 140.488281 129.367188 C 140.488281 130.046875 140.5625 130.65625 140.636719 131.261719 C 140.941406 133.539062 141.625 134.980469 142.460938 135.132812 C 144.207031 135.4375 147.011719 130.882812 148.378906 123.75 C 148.53125 123.21875 148.605469 122.839844 148.683594 122.382812 Z M 140.867188 124.054688 C 143.597656 120.867188 146.253906 117.601562 148.835938 114.339844 C 148.53125 112.363281 147.847656 111.074219 147.089844 110.921875 C 147.011719 110.921875 146.9375 110.921875 146.9375 110.921875 C 145.191406 110.921875 142.460938 115.476562 141.167969 122.382812 C 141.09375 122.914062 140.941406 123.523438 140.867188 124.054688 Z M 140.5625 128.453125 C 143.144531 125.875 146.101562 123.824219 148.757812 121.320312 C 148.835938 121.320312 148.835938 121.246094 148.835938 121.246094 C 149.140625 119.121094 149.140625 117.070312 148.988281 115.324219 C 146.332031 118.664062 143.597656 122.003906 140.867188 125.265625 C 140.789062 125.34375 140.789062 125.34375 140.714844 125.34375 C 140.636719 126.480469 140.5625 127.46875 140.5625 128.453125 Z M 140.789062 148.644531 C 140.789062 148.71875 140.789062 148.796875 140.789062 148.871094 C 140.789062 148.871094 140.867188 148.871094 140.867188 148.871094 C 142.382812 149.402344 143.144531 150.996094 143.597656 152.4375 C 144.128906 153.878906 144.507812 155.398438 144.886719 156.839844 C 145.417969 158.964844 145.800781 161.167969 145.34375 163.292969 C 144.886719 165.339844 143.75 167.164062 142.761719 168.90625 C 142.308594 169.742188 141.851562 170.503906 141.550781 171.335938 C 141.320312 171.867188 140.941406 172.628906 141.09375 173.234375 C 141.167969 173.691406 140.410156 173.917969 140.335938 173.460938 C 140.257812 172.777344 140.410156 172.097656 140.714844 171.488281 C 141.09375 170.578125 141.550781 169.742188 141.929688 168.90625 C 142.839844 167.164062 144.054688 165.417969 144.507812 163.519531 C 145.039062 161.394531 144.660156 159.117188 144.128906 156.992188 C 143.75 155.550781 143.445312 154.109375 142.914062 152.742188 C 142.535156 151.605469 141.851562 150.007812 140.636719 149.554688 C 140.488281 150.617188 140.335938 151.605469 140.183594 152.667969 C 140.105469 153.273438 139.957031 153.878906 139.957031 154.488281 C 140.105469 154.640625 140.257812 154.792969 140.410156 154.867188 C 140.789062 155.171875 140.257812 155.703125 139.878906 155.398438 C 138.4375 154.109375 136.996094 152.515625 136.160156 150.691406 C 135.402344 148.871094 135.554688 145.835938 133.199219 145.226562 C 131.226562 144.695312 131.074219 147.125 130.773438 148.414062 C 130.621094 149.175781 130.390625 149.859375 129.859375 150.464844 C 129.40625 151.074219 128.722656 151.527344 128.113281 151.984375 C 127.433594 152.589844 126.976562 153.121094 126.976562 154.03125 C 126.976562 154.941406 126.976562 155.703125 126.597656 156.535156 C 125.914062 157.980469 124.625 159.117188 124.167969 160.710938 C 123.863281 161.773438 124.246094 162.835938 124.546875 163.824219 C 124.777344 164.582031 125.078125 165.339844 125.382812 166.023438 C 125.914062 167.464844 126.519531 168.90625 127.050781 170.351562 C 128.417969 173.917969 129.558594 177.558594 130.316406 181.28125 C 130.390625 181.734375 129.710938 181.960938 129.558594 181.507812 C 128.722656 177.179688 127.355469 173.082031 125.6875 168.984375 C 125.078125 167.464844 124.472656 166.023438 123.941406 164.507812 C 123.5625 163.519531 123.183594 162.457031 123.257812 161.394531 C 123.332031 160.558594 123.636719 159.800781 124.09375 159.042969 C 124.546875 158.28125 125.078125 157.675781 125.535156 156.917969 C 126.066406 156.082031 126.292969 155.246094 126.21875 154.261719 C 126.140625 153.347656 126.371094 152.589844 126.976562 151.90625 C 127.507812 151.300781 128.191406 150.84375 128.796875 150.3125 C 129.480469 149.707031 129.710938 149.023438 129.9375 148.1875 C 130.089844 147.429688 130.164062 146.59375 130.46875 145.835938 C 131.152344 144.164062 132.972656 143.863281 134.339844 144.925781 C 135.171875 145.53125 135.554688 146.367188 135.855469 147.277344 C 136.234375 144.695312 137.222656 138.929688 137.449219 137.105469 C 137.222656 137.03125 136.917969 136.957031 136.691406 136.804688 C 136.007812 136.5 135.628906 135.664062 135.171875 135.058594 C 133.503906 132.554688 133.046875 129.59375 132.972656 126.632812 C 132.898438 121.699219 133.65625 116.691406 136.160156 112.363281 C 136.917969 111 137.90625 109.707031 138.96875 108.570312 C 139.5 108.039062 140.03125 107.429688 140.714844 106.976562 C 141.019531 106.824219 141.320312 106.824219 141.625 106.898438 C 142.382812 106.976562 143.066406 107.050781 143.824219 107.203125 C 144.964844 107.355469 146.179688 107.582031 147.316406 107.8125 C 147.394531 107.8125 147.394531 107.886719 147.46875 107.886719 C 150.65625 108.875 151.945312 115.78125 150.429688 123.902344 C 148.910156 131.792969 145.34375 137.636719 142.003906 137.714844 C 141.929688 138.320312 141.851562 138.929688 141.699219 139.535156 C 141.625 142.722656 141.167969 145.683594 140.789062 148.644531 Z M 139.195312 121.851562 C 137.753906 129.59375 138.96875 136.5 141.851562 137.105469 C 144.738281 137.636719 148.457031 131.644531 149.972656 123.902344 C 151.414062 116.234375 150.203125 109.253906 147.316406 108.644531 C 144.355469 108.113281 140.714844 114.1875 139.195312 121.851562 Z M 138.210938 136.652344 C 138.816406 136.804688 139.5 136.878906 140.183594 136.957031 C 137.90625 134.679688 137.148438 128.683594 138.511719 121.699219 C 139.804688 115.019531 142.535156 109.785156 145.417969 108.265625 C 144.585938 108.113281 143.824219 108.039062 143.066406 107.886719 C 142.535156 107.8125 142.003906 107.8125 141.472656 107.734375 C 141.472656 107.734375 141.472656 107.734375 141.398438 107.734375 C 141.398438 107.734375 141.398438 107.734375 141.320312 107.734375 C 141.246094 107.8125 141.246094 107.8125 141.167969 107.8125 C 139.195312 109.480469 137.601562 111.683594 136.464844 114.035156 C 134.339844 118.359375 133.730469 123.371094 134.109375 128.226562 C 134.1875 129.820312 134.492188 131.339844 135.023438 132.855469 C 135.324219 133.691406 135.855469 134.449219 136.3125 135.210938 C 136.464844 135.4375 136.691406 135.742188 136.84375 135.96875 C 137.070312 136.425781 137.753906 136.5 138.210938 136.652344 Z M 140.789062 143.101562 C 141.019531 141.359375 141.320312 139.613281 141.550781 137.867188 C 141.472656 137.867188 141.472656 137.867188 141.472656 137.867188 C 140.488281 137.789062 139.425781 137.714844 138.4375 137.488281 C 138.058594 139.839844 136.691406 148.1875 136.617188 148.871094 L 136.386719 148.871094 C 136.539062 149.476562 136.691406 150.007812 136.917969 150.542969 C 137.449219 151.753906 138.285156 152.894531 139.273438 153.878906 C 139.347656 153.347656 139.425781 152.742188 139.5 152.210938 C 139.957031 149.175781 140.335938 146.140625 140.789062 143.101562 Z M 111.039062 45.953125 C 111.039062 49.292969 108.304688 51.949219 104.890625 51.949219 C 101.476562 51.949219 98.742188 49.21875 98.742188 45.953125 C 98.742188 42.691406 101.476562 39.957031 104.890625 39.957031 C 108.304688 39.957031 111.039062 42.617188 111.039062 45.953125 Z M 110.28125 45.953125 C 110.28125 43.070312 107.851562 40.71875 104.890625 40.71875 C 101.929688 40.71875 99.503906 43.070312 99.503906 45.953125 C 99.503906 48.839844 101.929688 51.191406 104.890625 51.191406 C 107.851562 51.191406 110.28125 48.839844 110.28125 45.953125 Z M 109.445312 53.316406 C 111.34375 57.035156 115.742188 65.765625 115.742188 66.445312 C 115.742188 67.128906 114.378906 68.191406 113.390625 68.496094 C 113.238281 68.570312 113.011719 68.570312 112.859375 68.570312 C 112.40625 68.570312 112.023438 68.34375 111.796875 67.964844 C 111.113281 66.75 106.558594 55.214844 106.410156 54.605469 L 107.089844 54.378906 C 107.320312 54.988281 111.796875 66.523438 112.480469 67.660156 C 112.554688 67.738281 112.632812 67.890625 113.085938 67.8125 C 113.921875 67.660156 114.984375 66.75 114.984375 66.445312 C 114.910156 65.839844 111.113281 58.324219 108.835938 53.695312 C 108.304688 54 107.773438 54.152344 107.167969 54.378906 C 106.484375 54.53125 105.726562 54.683594 104.964844 54.683594 C 100.183594 54.683594 96.3125 50.8125 96.3125 46.03125 C 96.3125 41.25 100.183594 37.300781 104.964844 37.300781 C 109.75 37.300781 113.617188 41.171875 113.617188 45.953125 C 113.617188 49.066406 111.949219 51.722656 109.445312 53.316406 Z M 112.859375 45.953125 C 112.859375 41.628906 109.292969 38.0625 104.964844 38.0625 C 100.640625 38.0625 97.074219 41.628906 97.074219 45.953125 C 97.074219 50.28125 100.640625 53.847656 104.964844 53.847656 C 109.292969 53.847656 112.859375 50.28125 112.859375 45.953125 Z M 72.863281 103.941406 C 72.863281 100.375 74.457031 97.566406 76.503906 97.566406 C 78.554688 97.566406 80.148438 100.371094 80.148438 103.941406 C 80.148438 107.507812 78.554688 110.316406 76.503906 110.316406 C 74.457031 110.316406 72.863281 107.507812 72.863281 103.941406 Z M 73.621094 103.941406 C 73.621094 106.976562 74.988281 109.554688 76.503906 109.554688 C 78.097656 109.554688 79.390625 106.976562 79.390625 103.941406 C 79.390625 100.90625 78.023438 98.324219 76.503906 98.324219 C 74.910156 98.324219 73.621094 100.90625 73.621094 103.941406 Z M 78.25 143.632812 C 78.25 145.304688 76.882812 146.746094 75.140625 146.746094 C 73.46875 146.746094 72.027344 145.378906 72.027344 143.632812 C 72.027344 141.964844 73.394531 140.523438 75.140625 140.523438 C 76.882812 140.523438 78.25 141.964844 78.25 143.632812 Z M 77.492188 143.632812 C 77.492188 142.34375 76.429688 141.28125 75.140625 141.28125 C 73.847656 141.28125 72.785156 142.34375 72.785156 143.632812 C 72.785156 144.925781 73.847656 145.988281 75.140625 145.988281 C 76.429688 145.910156 77.492188 144.925781 77.492188 143.632812 Z M 67.625 90.203125 C 67.625 84.890625 69.902344 79.730469 73.695312 76.085938 C 75.441406 74.492188 77.566406 72.972656 79.921875 72.519531 C 81.058594 72.292969 82.199219 72.441406 83.183594 72.824219 C 84.324219 71.378906 85.535156 70.015625 86.902344 68.800781 C 90.851562 65.234375 95.328125 62.347656 100.261719 60.300781 C 100.714844 60.148438 100.945312 60.832031 100.488281 61.058594 C 95.554688 63.109375 91 66.066406 87.128906 69.632812 C 85.992188 70.699219 84.929688 71.835938 83.941406 73.125 C 84.550781 73.503906 85.15625 74.035156 85.535156 74.71875 C 86.597656 76.3125 86.75 78.667969 85.535156 80.261719 C 84.472656 81.625 82.121094 82.539062 80.832031 80.867188 C 79.390625 79.046875 80.90625 76.3125 81.894531 74.644531 C 82.121094 74.1875 82.425781 73.808594 82.730469 73.355469 C 80.984375 72.746094 78.859375 73.355469 77.265625 74.265625 C 75.441406 75.25 73.847656 76.769531 72.558594 78.363281 C 69.902344 81.625 68.382812 85.875 68.382812 90.125 C 68.382812 90.734375 67.625 90.734375 67.625 90.203125 Z M 82.578125 75.097656 C 82.046875 76.011719 81.515625 76.996094 81.210938 78.058594 C 80.984375 78.96875 80.832031 80.183594 81.667969 80.792969 C 82.347656 81.324219 83.261719 81.09375 83.941406 80.714844 C 84.703125 80.261719 85.234375 79.578125 85.460938 78.667969 C 85.917969 76.921875 85.082031 74.871094 83.5625 73.886719 C 83.488281 73.886719 83.410156 73.808594 83.410156 73.808594 C 83.109375 74.1875 82.878906 74.644531 82.578125 75.097656 Z M 59.882812 47.09375 C 60.792969 47.09375 61.628906 47.09375 62.539062 47.09375 C 62.539062 48.230469 62.539062 49.292969 62.539062 50.433594 C 62.539062 50.585938 62.539062 50.8125 62.539062 50.964844 C 62.539062 51.417969 63.300781 51.417969 63.300781 50.964844 C 63.300781 50.8125 63.300781 50.585938 63.300781 50.433594 C 63.300781 49.292969 63.300781 48.230469 63.300781 47.09375 C 64.210938 47.09375 65.195312 47.09375 66.105469 47.09375 C 66.5625 47.09375 66.636719 46.335938 66.105469 46.335938 C 65.195312 46.335938 64.210938 46.335938 63.300781 46.335938 C 63.300781 45.421875 63.300781 44.4375 63.300781 43.527344 C 63.300781 42.996094 62.539062 42.996094 62.539062 43.527344 C 62.539062 44.4375 62.539062 45.421875 62.539062 46.335938 C 61.628906 46.335938 60.792969 46.335938 59.882812 46.335938 C 59.429688 46.335938 59.429688 47.09375 59.882812 47.09375 Z M 61.097656 111.226562 C 62.539062 111.152344 63.980469 110.921875 65.347656 110.542969 C 65.5 110.542969 65.574219 110.46875 65.652344 110.46875 C 66.105469 110.316406 65.957031 109.632812 65.425781 109.707031 C 64.132812 110.085938 62.769531 110.316406 61.402344 110.46875 C 61.324219 108.722656 61.324219 106.898438 61.324219 105.15625 C 62.238281 105.078125 63.148438 104.925781 64.058594 104.546875 C 64.285156 104.472656 64.363281 104.320312 64.285156 104.09375 C 64.210938 103.941406 63.980469 103.789062 63.832031 103.863281 C 62.996094 104.167969 62.160156 104.320312 61.324219 104.394531 C 61.324219 103.179688 61.324219 101.96875 61.25 100.753906 C 61.25 100.675781 61.25 100.601562 61.175781 100.601562 C 62.238281 100.523438 63.300781 100.371094 64.363281 100.070312 C 64.511719 100.144531 64.742188 100.144531 64.96875 99.992188 C 65.121094 99.839844 65.195312 99.539062 65.042969 99.386719 C 64.96875 99.234375 64.742188 99.160156 64.589844 99.234375 C 63.375 99.613281 62.160156 99.839844 60.945312 99.839844 C 60.644531 99.839844 60.492188 100.222656 60.644531 100.449219 C 60.492188 100.523438 60.414062 100.601562 60.414062 100.753906 C 60.414062 104.09375 60.492188 107.507812 60.566406 110.921875 C 60.71875 111 60.871094 111.226562 61.097656 111.226562 Z M 57.984375 74.113281 C 57.984375 71.910156 59.808594 70.089844 62.007812 70.089844 C 64.210938 70.089844 66.03125 71.910156 66.03125 74.113281 C 66.03125 76.3125 64.210938 78.136719 62.007812 78.136719 C 59.808594 78.136719 57.984375 76.3125 57.984375 74.113281 Z M 58.746094 74.113281 C 58.746094 75.933594 60.1875 77.375 62.007812 77.375 C 63.832031 77.375 65.273438 75.933594 65.273438 74.113281 C 65.273438 72.292969 63.832031 70.847656 62.007812 70.847656 C 60.1875 70.847656 58.746094 72.292969 58.746094 74.113281 Z M 49.867188 113.425781 C 51.230469 113.730469 52.445312 112.746094 52.976562 111.53125 C 53.507812 110.164062 52.902344 108.644531 51.992188 107.582031 C 51.460938 106.976562 50.851562 106.519531 50.246094 106.066406 C 49.484375 105.535156 49.183594 104.773438 49.484375 103.863281 C 49.636719 103.332031 49.941406 102.953125 50.246094 102.5 C 50.472656 102.195312 50.851562 101.511719 51.308594 101.585938 C 51.6875 101.664062 51.992188 102.195312 52.140625 102.5 C 52.371094 102.953125 52.75 103.5625 52.445312 104.09375 C 52.21875 104.546875 52.902344 104.925781 53.128906 104.472656 C 53.507812 103.710938 53.203125 102.878906 52.824219 102.195312 C 52.523438 101.664062 52.066406 100.980469 51.382812 100.90625 C 50.546875 100.753906 50.09375 101.511719 49.636719 102.117188 C 49.105469 102.800781 48.652344 103.484375 48.574219 104.394531 C 48.5 105.15625 48.726562 105.914062 49.257812 106.445312 C 49.867188 106.976562 50.546875 107.355469 51.078125 107.960938 C 52.140625 109.101562 52.824219 110.921875 51.609375 112.214844 C 51.003906 112.894531 50.015625 113.046875 49.257812 112.515625 C 48.347656 111.910156 47.96875 110.847656 47.589844 109.859375 C 47.4375 109.40625 46.675781 109.632812 46.828125 110.085938 C 47.511719 111.300781 48.195312 113.046875 49.867188 113.425781 Z M 40.453125 132.175781 C 40.453125 133.539062 39.390625 134.601562 38.023438 134.601562 C 36.660156 134.601562 35.597656 133.539062 35.597656 132.175781 C 35.597656 130.808594 36.660156 129.746094 38.023438 129.746094 C 39.390625 129.746094 40.453125 130.808594 40.453125 132.175781 Z M 39.695312 132.175781 C 39.695312 131.261719 38.9375 130.503906 38.023438 130.503906 C 37.113281 130.503906 36.355469 131.261719 36.355469 132.175781 C 36.355469 133.085938 37.113281 133.84375 38.023438 133.84375 C 39.011719 133.84375 39.695312 133.085938 39.695312 132.175781 Z M 32.710938 98.628906 L 100.792969 89.445312 L 99.199219 110.921875 L 30.816406 120.484375 Z M 33.394531 99.308594 L 31.574219 119.652344 L 98.4375 110.316406 L 99.882812 90.355469 Z M 29.828125 72.367188 C 29.828125 67.8125 32.179688 64.09375 35.066406 64.09375 C 37.949219 64.09375 40.378906 67.8125 40.378906 72.367188 C 40.378906 76.921875 38.023438 80.714844 35.066406 80.714844 C 32.179688 80.714844 29.828125 76.996094 29.828125 72.367188 Z M 30.585938 72.367188 C 30.585938 76.542969 32.636719 79.957031 35.066406 79.957031 C 37.492188 79.957031 39.621094 76.542969 39.621094 72.367188 C 39.621094 68.191406 37.570312 64.851562 35.066406 64.851562 C 32.636719 64.851562 30.585938 68.191406 30.585938 72.367188 Z M 33.925781 150.238281 C 32.789062 150.238281 31.574219 150.238281 30.4375 150.238281 C 30.4375 149.097656 30.4375 147.882812 30.4375 146.746094 C 30.4375 146.289062 29.675781 146.289062 29.675781 146.746094 C 29.675781 147.882812 29.675781 149.097656 29.675781 150.238281 C 28.539062 150.238281 27.476562 150.238281 26.335938 150.238281 C 25.804688 150.238281 25.804688 150.996094 26.335938 150.996094 C 27.476562 150.996094 28.539062 150.996094 29.675781 150.996094 C 29.675781 152.210938 29.675781 153.425781 29.675781 154.640625 C 29.675781 155.09375 30.4375 155.09375 30.4375 154.640625 C 30.4375 153.425781 30.4375 152.210938 30.4375 150.996094 C 31.574219 150.996094 32.789062 150.996094 33.925781 150.996094 C 34.382812 150.996094 34.382812 150.238281 33.925781 150.238281 Z M 26.414062 72.367188 C 26.414062 65.765625 30.285156 60.453125 35.066406 60.453125 C 39.847656 60.453125 43.71875 65.765625 43.71875 72.367188 C 43.71875 78.96875 39.847656 84.28125 35.066406 84.28125 C 30.359375 84.28125 26.414062 78.96875 26.414062 72.367188 Z M 27.171875 72.367188 C 27.171875 78.515625 30.738281 83.523438 35.066406 83.523438 C 39.390625 83.523438 42.957031 78.515625 42.957031 72.367188 C 42.957031 66.21875 39.390625 61.210938 35.066406 61.210938 C 30.738281 61.210938 27.171875 66.21875 27.171875 72.367188 Z M 20.417969 79.199219 L 25.652344 79.199219 L 25.351562 83.980469 L 10.246094 84.359375 L 10.019531 79.578125 L 15.9375 79.273438 L 16.167969 65.382812 L 14.269531 67.433594 L 11.308594 65.535156 L 16.773438 58.78125 L 19.960938 59.386719 Z M 24.894531 79.957031 L 19.734375 79.957031 L 19.203125 59.996094 L 17 59.617188 L 12.371094 65.382812 L 14.117188 66.523438 L 16.925781 63.488281 L 16.773438 80.03125 L 10.855469 80.414062 L 11.007812 83.675781 L 24.667969 83.371094 Z M 24.894531 79.957031 " fill-opacity="1" fill-rule="nonzero"/></g><g clip-path="url(#53d96429c5)"><path fill="#000000" d="M 212.816406 221.203125 C 212.664062 214.902344 212.4375 208.679688 211.90625 202.378906 C 211.296875 194.789062 209.855469 187.199219 207.351562 179.988281 C 204.695312 172.398438 200.75 165.265625 195.359375 159.269531 C 194.675781 158.511719 193.992188 157.828125 193.3125 157.144531 C 193.234375 157.066406 193.082031 156.992188 192.929688 157.066406 C 187.847656 158.890625 182.835938 160.863281 177.980469 163.140625 C 174.5625 164.734375 171.300781 166.554688 168.265625 168.832031 C 166.214844 170.425781 164.46875 172.246094 163.105469 174.523438 C 161.738281 176.800781 160.675781 179.230469 159.535156 181.660156 C 156.957031 187.046875 154.601562 192.511719 153.3125 198.355469 C 150.882812 193.042969 148.457031 187.65625 146.101562 182.34375 C 144.660156 179.152344 143.21875 175.964844 141.851562 172.777344 C 141.777344 172.628906 141.472656 172.550781 141.320312 172.628906 C 137.753906 175.359375 134.339844 178.242188 130.921875 181.128906 C 129.710938 182.191406 128.417969 183.175781 127.203125 184.238281 C 126.976562 184.46875 126.671875 184.617188 126.671875 185 C 126.671875 185.148438 126.671875 185.226562 126.75 185.378906 C 127.050781 187.65625 127.433594 189.929688 127.886719 192.285156 C 128.644531 196.535156 129.480469 200.785156 130.390625 205.035156 C 131.453125 209.96875 132.667969 214.902344 134.109375 219.683594 C 135.402344 224.085938 136.917969 228.410156 139.042969 232.511719 C 139.957031 234.253906 140.941406 235.925781 142.082031 237.519531 C 142.003906 240.175781 142.003906 242.832031 141.929688 245.488281 C 141.929688 245.867188 141.929688 246.246094 141.929688 246.703125 C 141.929688 246.929688 142.082031 247.082031 142.308594 247.082031 C 142.914062 247.082031 143.597656 247.082031 144.207031 247.082031 C 145.875 247.082031 147.621094 247.082031 149.289062 247.082031 C 151.796875 247.082031 154.375 247.082031 156.878906 247.15625 C 159.992188 247.15625 163.027344 247.234375 166.140625 247.234375 C 169.480469 247.234375 172.894531 247.308594 176.234375 247.308594 C 179.648438 247.308594 183.066406 247.386719 186.480469 247.386719 C 189.667969 247.386719 192.855469 247.460938 196.042969 247.460938 C 198.699219 247.460938 201.433594 247.539062 204.089844 247.539062 C 206.0625 247.539062 207.957031 247.539062 209.933594 247.613281 C 210.84375 247.613281 211.753906 247.6875 212.664062 247.613281 C 212.742188 247.613281 212.742188 247.613281 212.816406 247.613281 C 213.042969 247.613281 213.195312 247.460938 213.195312 247.234375 C 213.195312 244.578125 213.195312 241.921875 213.195312 239.265625 C 213.042969 233.117188 212.96875 227.121094 212.816406 221.203125 Z M 212.285156 245.867188 C 212.285156 246.171875 212.285156 246.398438 212.285156 246.703125 C 211.753906 246.703125 211.296875 246.703125 210.765625 246.703125 C 209.097656 246.703125 207.351562 246.703125 205.683594 246.703125 C 203.175781 246.703125 200.597656 246.703125 198.09375 246.625 C 194.980469 246.625 191.945312 246.550781 188.832031 246.550781 C 185.492188 246.550781 182.078125 246.476562 178.738281 246.476562 C 175.324219 246.476562 171.90625 246.398438 168.492188 246.398438 C 165.304688 246.398438 162.117188 246.324219 158.929688 246.324219 C 156.273438 246.324219 153.539062 246.246094 150.882812 246.246094 C 148.910156 246.246094 147.011719 246.246094 145.039062 246.171875 C 144.433594 246.171875 143.824219 246.171875 143.21875 246.171875 C 142.992188 246.171875 142.761719 246.171875 142.535156 246.171875 C 142.613281 243.589844 142.613281 240.933594 142.6875 238.355469 C 143.066406 238.808594 143.523438 239.339844 143.976562 239.796875 C 146.332031 242.074219 149.214844 243.4375 152.476562 243.742188 C 155.894531 244.046875 159.234375 243.210938 162.421875 241.996094 C 165.378906 240.859375 168.1875 239.339844 170.84375 237.519531 C 176.308594 233.722656 180.863281 228.789062 184.660156 223.476562 C 188.910156 217.558594 192.324219 211.105469 195.738281 204.65625 C 196.574219 203.0625 197.484375 201.390625 198.167969 199.722656 C 198.320312 199.265625 197.710938 198.886719 197.484375 199.34375 C 196.347656 202.152344 194.828125 204.808594 193.386719 207.464844 C 192.019531 210.042969 190.578125 212.699219 189.058594 215.207031 C 186.101562 220.214844 182.835938 225.070312 178.890625 229.320312 C 175.324219 233.191406 171.226562 236.683594 166.519531 239.1875 C 161.8125 241.769531 156.046875 243.820312 150.65625 242.679688 C 147.242188 241.921875 144.738281 239.796875 142.6875 237.140625 C 142.6875 237.0625 142.6875 236.988281 142.6875 236.988281 C 142.6875 236.761719 142.460938 236.609375 142.308594 236.609375 C 141.320312 235.242188 140.488281 233.800781 139.726562 232.433594 C 138.058594 229.246094 136.765625 225.832031 135.628906 222.339844 C 134.339844 218.394531 133.277344 214.445312 132.289062 210.425781 C 131.378906 206.554688 130.542969 202.757812 129.785156 198.8125 C 129.179688 195.777344 128.644531 192.738281 128.113281 189.628906 C 127.886719 188.109375 127.582031 186.515625 127.355469 185 C 130.921875 181.960938 134.566406 179.003906 138.132812 176.042969 C 139.195312 175.207031 140.183594 174.371094 141.246094 173.539062 C 143.824219 179.382812 146.40625 185.148438 149.0625 190.996094 C 151.414062 196.15625 153.691406 201.316406 156.046875 206.476562 C 156.5 207.464844 156.957031 208.527344 157.410156 209.511719 C 157.410156 209.511719 157.488281 209.589844 157.488281 209.589844 C 155.589844 212.550781 153.691406 215.433594 151.796875 218.394531 C 151.566406 218.695312 151.414062 219 151.1875 219.378906 C 150.882812 219.757812 151.566406 220.136719 151.871094 219.757812 C 153.769531 216.722656 155.742188 213.761719 157.714844 210.726562 C 160.144531 207.085938 162.574219 203.441406 165.078125 199.796875 C 167.65625 196.078125 170.390625 192.511719 173.199219 189.019531 C 175.625 186.0625 178.207031 183.101562 181.089844 180.519531 C 182.988281 178.851562 185.339844 176.953125 187.921875 176.421875 C 188.148438 176.347656 188.378906 176.347656 188.605469 176.347656 C 189.0625 176.347656 189.0625 175.585938 188.605469 175.585938 C 186.023438 175.738281 183.671875 177.410156 181.773438 178.925781 C 178.8125 181.28125 176.308594 184.085938 173.882812 186.972656 C 170.996094 190.386719 168.265625 194.03125 165.609375 197.671875 C 162.953125 201.316406 160.449219 205.035156 158.019531 208.828125 C 156.726562 206.023438 155.4375 203.214844 154.148438 200.328125 C 153.996094 200.027344 153.84375 199.644531 153.691406 199.34375 C 153.769531 199.265625 153.84375 199.191406 153.84375 199.113281 C 154.90625 193.800781 156.957031 188.71875 159.308594 183.859375 C 160.449219 181.429688 161.585938 179.078125 162.800781 176.726562 C 164.015625 174.449219 165.457031 172.324219 167.429688 170.578125 C 170.390625 167.996094 173.730469 166.101562 177.21875 164.355469 C 180.484375 162.761719 183.898438 161.320312 187.316406 160.027344 C 189.136719 159.269531 191.035156 158.585938 192.929688 157.902344 C 198.625 163.519531 202.875 170.503906 205.832031 177.941406 C 208.71875 185.226562 210.3125 193.042969 211.070312 200.859375 C 211.679688 206.933594 211.90625 213.082031 212.058594 219.152344 C 212.210938 225.222656 212.285156 231.296875 212.359375 237.367188 C 212.359375 239.492188 212.359375 241.695312 212.359375 243.820312 C 212.359375 244.5 212.359375 245.183594 212.285156 245.867188 Z M 54.648438 136.273438 L 46.90625 175.664062 L 53.734375 175.285156 L 55.101562 166.175781 L 60.261719 166.175781 L 61.628906 175.132812 L 68.308594 175.132812 L 59.050781 136.042969 Z M 62.238281 174.371094 L 60.871094 165.417969 L 54.496094 165.417969 L 53.128906 174.523438 L 47.816406 174.828125 L 55.253906 136.957031 L 58.367188 136.804688 L 67.320312 174.296875 Z M 56.011719 144.925781 L 54.039062 160.40625 L 60.113281 160.179688 L 57.835938 145.152344 Z M 54.949219 159.648438 L 56.695312 145.835938 L 57.226562 145.910156 L 59.277344 159.574219 Z M 54.949219 159.648438 " fill-opacity="1" fill-rule="nonzero"/></g><path fill="#f69426" d="M 129.710938 102.042969 C 129.027344 100.753906 127.886719 99.613281 126.671875 98.777344 C 125.382812 97.945312 123.863281 97.261719 122.347656 96.957031 C 123.863281 96.199219 125.308594 95.210938 126.371094 93.921875 C 127.886719 92.023438 128.496094 89.214844 128.34375 86.863281 C 128.191406 84.511719 127.355469 82.15625 125.609375 80.488281 C 123.5625 78.589844 120.828125 78.136719 118.171875 78.058594 C 114.53125 77.90625 110.8125 78.285156 107.242188 79.121094 C 107.167969 79.121094 107.167969 79.121094 107.089844 79.199219 C 106.710938 79.199219 106.636719 79.804688 107.015625 79.957031 C 108.535156 80.410156 110.050781 80.945312 110.660156 82.613281 C 110.960938 83.371094 110.960938 84.054688 110.960938 84.890625 C 111.113281 87.621094 111.191406 90.429688 111.265625 93.164062 C 111.34375 96.730469 111.34375 100.296875 111.34375 103.863281 C 111.34375 106.75 111.34375 109.632812 111.191406 112.515625 C 111.191406 113.277344 111.113281 114.035156 111.039062 114.71875 C 111.039062 114.71875 111.039062 114.792969 111.039062 114.792969 C 111.039062 114.945312 110.960938 115.097656 110.886719 115.25 C 110.734375 115.703125 110.429688 116.007812 110.050781 116.3125 C 109.292969 116.84375 108.457031 117.070312 107.621094 117.527344 C 107.242188 117.753906 106.941406 118.058594 106.636719 118.359375 C 106.484375 118.589844 106.558594 119.042969 106.941406 119.042969 C 110.050781 118.890625 113.164062 118.890625 116.273438 118.816406 C 117.945312 118.738281 119.613281 118.664062 121.285156 118.511719 C 122.726562 118.359375 124.09375 118.132812 125.382812 117.375 C 128.875 115.402344 130.695312 111.300781 130.773438 107.429688 C 130.921875 105.535156 130.621094 103.710938 129.710938 102.042969 Z M 116.273438 92.933594 L 115.972656 82.917969 C 116.957031 82.839844 119.84375 82.6875 121.589844 84.054688 C 122.421875 84.738281 122.878906 85.648438 122.953125 86.863281 C 123.183594 91.039062 117.792969 92.554688 116.273438 92.933594 Z M 116.882812 112.441406 L 116.425781 103.179688 C 117.566406 103.105469 121.359375 102.953125 123.183594 104.625 C 123.941406 105.304688 124.246094 106.140625 124.246094 107.28125 C 124.167969 111.910156 118.398438 112.363281 116.882812 112.441406 Z M 10.09375 115.933594 L 19.886719 110.316406 L 19.886719 132.78125 L 10.09375 127.164062 L 0.304688 121.546875 Z M 10.09375 115.933594 " fill-opacity="1" fill-rule="nonzero"/><path fill="#ffde59" d="M 42.808594 44.058594 C 42.808594 44.058594 40.53125 44.511719 40 45.421875 C 39.46875 46.335938 38.785156 48.992188 38.785156 48.992188 C 38.707031 49.292969 38.253906 49.292969 38.175781 48.992188 C 38.175781 48.992188 37.722656 46.335938 37.191406 45.347656 C 36.660156 44.359375 34.230469 44.058594 34.230469 44.058594 C 33.925781 43.90625 34.003906 43.527344 34.230469 43.449219 C 34.230469 43.449219 36.582031 43.527344 37.191406 42.234375 C 37.796875 40.945312 38.175781 38.667969 38.175781 38.667969 C 38.253906 38.363281 38.707031 38.363281 38.785156 38.667969 C 38.785156 38.667969 39.316406 41.324219 39.847656 42.234375 C 40.378906 43.148438 42.808594 43.449219 42.808594 43.449219 C 43.109375 43.527344 43.109375 43.90625 42.808594 44.058594 Z M 91.609375 156.386719 C 91.609375 156.386719 89.332031 156.082031 88.875 155.171875 C 88.421875 154.261719 87.890625 151.605469 87.890625 151.605469 C 87.8125 151.300781 87.359375 151.300781 87.28125 151.605469 C 87.28125 151.605469 86.980469 153.878906 86.371094 155.171875 C 85.839844 156.460938 83.640625 156.386719 83.640625 156.386719 C 83.335938 156.460938 83.335938 156.917969 83.640625 156.992188 C 83.640625 156.992188 85.839844 157.371094 86.371094 158.28125 C 86.902344 159.191406 87.28125 161.925781 87.28125 161.925781 C 87.359375 162.230469 87.8125 162.230469 87.890625 161.925781 C 87.890625 161.925781 88.574219 159.191406 89.027344 158.359375 C 89.484375 157.449219 91.609375 156.992188 91.609375 156.992188 C 91.914062 156.917969 91.914062 156.535156 91.609375 156.386719 Z M 130.695312 66.144531 L 130.695312 73.808594 L 137.90625 73.808594 L 137.90625 66.144531 Z M 130.695312 66.144531 " fill-opacity="1" fill-rule="nonzero"/><path fill="#000000" d="M 90.015625 126.328125 C 90.015625 127.921875 88.722656 129.289062 87.054688 129.289062 C 85.386719 129.289062 84.09375 128 84.09375 126.328125 C 84.09375 124.660156 85.386719 123.371094 87.054688 123.371094 C 88.722656 123.371094 90.015625 124.660156 90.015625 126.328125 Z M 24.136719 92.328125 C 22.996094 92.328125 22.085938 93.238281 22.085938 94.378906 C 22.085938 95.515625 22.996094 96.425781 24.136719 96.425781 C 25.273438 96.425781 26.183594 95.515625 26.183594 94.378906 C 26.183594 93.238281 25.273438 92.328125 24.136719 92.328125 Z M 89.105469 50.507812 C 89.105469 48.761719 87.660156 47.398438 85.992188 47.398438 C 84.324219 47.398438 82.878906 48.839844 82.878906 50.507812 C 82.878906 52.179688 84.324219 53.621094 85.992188 53.621094 C 87.660156 53.621094 89.105469 52.253906 89.105469 50.507812 Z M 89.105469 50.507812 " fill-opacity="1" fill-rule="nonzero"/></svg>